<?xml version="1.0" encoding="UTF-8" standalone="no"?>
<!DOCTYPE svg PUBLIC "-//W3C//DTD SVG 1.1//EN" "http://www.w3.org/Graphics/SVG/1.1/DTD/svg11.dtd">
<svg width="100%" height="100%" viewBox="0 0 1080 1080" version="1.1" xmlns="http://www.w3.org/2000/svg" xmlns:xlink="http://www.w3.org/1999/xlink" xml:space="preserve" xmlns:serif="http://www.serif.com/" style="fill-rule:evenodd;clip-rule:evenodd;stroke-linecap:round;stroke-linejoin:round;stroke-miterlimit:1.5;">
    <g transform="matrix(1,0,0,1,-461.878,-54.6573)">
        <circle cx="1001.88" cy="594.657" r="342.786" style="fill:none;stroke:rgb(230,26,26);stroke-width:10px;"/>
    </g>
    <g transform="matrix(1.05357,0,0,1.05343,-515.546,-86.4277)">
        <circle cx="1001.88" cy="594.657" r="342.786" style="fill:none;stroke:rgb(230,26,26);stroke-width:5.22px;"/>
    </g>
    <g transform="matrix(0.977257,0.212057,-0.212057,0.977257,-314.864,-282.988)">
        <g transform="matrix(0.350093,-0.936715,0.936715,0.350093,-29.7885,1036.39)">
            <g transform="matrix(40,0,0,40,731.986,539.664)">
                <path d="M0.477,-0.551L0.286,-0.551L0.286,-0.61C0.286,-0.637 0.283,-0.655 0.278,-0.662C0.273,-0.67 0.265,-0.673 0.254,-0.673C0.242,-0.673 0.232,-0.668 0.226,-0.658C0.219,-0.648 0.216,-0.633 0.216,-0.612C0.216,-0.586 0.22,-0.566 0.227,-0.553C0.234,-0.539 0.253,-0.523 0.285,-0.504C0.377,-0.45 0.434,-0.405 0.458,-0.371C0.482,-0.336 0.494,-0.28 0.494,-0.202C0.494,-0.146 0.487,-0.104 0.474,-0.078C0.461,-0.051 0.435,-0.029 0.397,-0.01C0.36,0.008 0.316,0.017 0.266,0.017C0.211,0.017 0.164,0.006 0.125,-0.015C0.086,-0.035 0.06,-0.062 0.048,-0.094C0.036,-0.126 0.03,-0.172 0.03,-0.231L0.03,-0.283L0.221,-0.283L0.221,-0.187C0.221,-0.157 0.224,-0.138 0.229,-0.13C0.235,-0.121 0.244,-0.117 0.258,-0.117C0.271,-0.117 0.282,-0.123 0.288,-0.133C0.295,-0.144 0.298,-0.16 0.298,-0.181C0.298,-0.228 0.292,-0.258 0.279,-0.272C0.266,-0.287 0.234,-0.311 0.183,-0.344C0.132,-0.378 0.098,-0.403 0.082,-0.418C0.065,-0.433 0.051,-0.454 0.04,-0.481C0.029,-0.508 0.024,-0.543 0.024,-0.585C0.024,-0.646 0.032,-0.69 0.047,-0.718C0.063,-0.746 0.088,-0.768 0.122,-0.783C0.157,-0.799 0.198,-0.807 0.247,-0.807C0.3,-0.807 0.346,-0.799 0.384,-0.781C0.421,-0.764 0.446,-0.742 0.458,-0.716C0.47,-0.69 0.477,-0.645 0.477,-0.583L0.477,-0.551Z" style="fill:rgb(230,26,26);fill-rule:nonzero;"/>
            </g>
        </g>
        <g transform="matrix(0.41481,-0.909908,0.909908,0.41481,-40.8426,977.144)">
            <g transform="matrix(40,0,0,40,739.256,520.325)">
                <path d="M0.455,-0.791L0.455,-0.632L0.333,-0.632L0.333,-0L0.127,-0L0.127,-0.632L0.006,-0.632L0.006,-0.791L0.455,-0.791Z" style="fill:rgb(230,26,26);fill-rule:nonzero;"/>
            </g>
        </g>
        <g transform="matrix(0.478812,-0.877917,0.877917,0.478812,-52.7244,918.1)">
            <g transform="matrix(40,0,0,40,746.887,503.456)">
                <path d="M0.041,-0.791L0.187,-0.791C0.284,-0.791 0.349,-0.787 0.384,-0.779C0.418,-0.772 0.446,-0.753 0.468,-0.722C0.489,-0.691 0.5,-0.642 0.5,-0.575C0.5,-0.513 0.492,-0.472 0.477,-0.451C0.462,-0.43 0.432,-0.417 0.387,-0.413C0.427,-0.403 0.455,-0.389 0.469,-0.372C0.483,-0.355 0.491,-0.34 0.495,-0.325C0.498,-0.311 0.5,-0.272 0.5,-0.208L0.5,-0L0.309,-0L0.309,-0.263C0.309,-0.305 0.306,-0.331 0.299,-0.341C0.292,-0.351 0.275,-0.356 0.247,-0.356L0.247,-0L0.041,-0L0.041,-0.791ZM0.247,-0.655L0.247,-0.479C0.27,-0.479 0.286,-0.483 0.295,-0.489C0.304,-0.495 0.309,-0.516 0.309,-0.551L0.309,-0.594C0.309,-0.619 0.305,-0.636 0.296,-0.644C0.287,-0.651 0.27,-0.655 0.247,-0.655Z" style="fill:rgb(230,26,26);fill-rule:nonzero;"/>
            </g>
        </g>
        <g transform="matrix(0.541911,-0.840436,0.840436,0.541911,-60.4054,858.363)">
            <g transform="matrix(40,0,0,40,757.198,484.593)">
                <path d="M0.396,-0.791L0.514,-0L0.303,-0L0.293,-0.142L0.219,-0.142L0.207,-0L-0.006,-0L0.099,-0.791L0.396,-0.791ZM0.287,-0.282C0.277,-0.372 0.266,-0.482 0.256,-0.614C0.235,-0.463 0.222,-0.352 0.217,-0.282L0.287,-0.282Z" style="fill:rgb(230,26,26);fill-rule:nonzero;"/>
            </g>
        </g>
        <g transform="matrix(0.591415,-0.806368,0.806368,0.591415,-65.0537,810.244)">
            <g transform="matrix(40,0,0,40,767.006,469.316)">
                <path d="M0.455,-0.791L0.455,-0.632L0.333,-0.632L0.333,-0L0.127,-0L0.127,-0.632L0.006,-0.632L0.006,-0.791L0.455,-0.791Z" style="fill:rgb(230,26,26);fill-rule:nonzero;"/>
            </g>
        </g>
        <g transform="matrix(0.639849,-0.7685,0.7685,0.639849,-70.4064,761.165)">
            <g transform="matrix(40,0,0,40,776.896,455.7)">
                <path d="M0.396,-0.791L0.514,-0L0.303,-0L0.293,-0.142L0.219,-0.142L0.207,-0L-0.006,-0L0.099,-0.791L0.396,-0.791ZM0.287,-0.282C0.277,-0.372 0.266,-0.482 0.256,-0.614C0.235,-0.463 0.222,-0.352 0.217,-0.282L0.287,-0.282Z" style="fill:rgb(230,26,26);fill-rule:nonzero;"/>
            </g>
        </g>
        <g transform="matrix(0.680911,-0.732366,0.732366,0.680911,-70.2797,719.014)">
            <g transform="matrix(40,0,0,40,789.993,440.159)">
                <rect x="0.041" y="-0.791" width="0.206" height="0.791" style="fill:rgb(230,26,26);fill-rule:nonzero;"/>
            </g>
        </g>
        <g transform="matrix(0.72206,-0.69183,0.69183,0.72206,-76.8841,671.854)">
            <g transform="matrix(40,0,0,40,797.726,431.614)">
                <path d="M0.041,-0.791L0.195,-0.791C0.294,-0.791 0.361,-0.786 0.396,-0.777C0.431,-0.768 0.458,-0.753 0.476,-0.732C0.494,-0.711 0.506,-0.688 0.51,-0.662C0.515,-0.637 0.517,-0.587 0.517,-0.512L0.517,-0.235C0.517,-0.164 0.514,-0.116 0.507,-0.093C0.5,-0.069 0.489,-0.05 0.472,-0.036C0.456,-0.023 0.435,-0.013 0.411,-0.008C0.386,-0.003 0.349,-0 0.3,-0L0.041,-0L0.041,-0.791ZM0.247,-0.655L0.247,-0.135C0.276,-0.135 0.294,-0.141 0.301,-0.153C0.308,-0.165 0.312,-0.197 0.312,-0.25L0.312,-0.557C0.312,-0.593 0.31,-0.616 0.308,-0.626C0.306,-0.636 0.301,-0.643 0.292,-0.648C0.284,-0.653 0.269,-0.655 0.247,-0.655Z" style="fill:rgb(230,26,26);fill-rule:nonzero;"/>
            </g>
        </g>
        <g transform="matrix(0.77137,-0.636387,0.636387,0.77137,-78.9079,613.004)">
            <g transform="matrix(40,0,0,40,813.688,416.321)">
                <path d="M0.513,-0.5L0.307,-0.5L0.307,-0.571C0.307,-0.617 0.305,-0.645 0.301,-0.656C0.297,-0.668 0.288,-0.673 0.273,-0.673C0.261,-0.673 0.252,-0.668 0.248,-0.659C0.243,-0.649 0.241,-0.624 0.241,-0.583L0.241,-0.204C0.241,-0.169 0.243,-0.145 0.248,-0.134C0.252,-0.123 0.261,-0.117 0.275,-0.117C0.29,-0.117 0.3,-0.124 0.305,-0.136C0.311,-0.149 0.313,-0.174 0.313,-0.21L0.313,-0.304L0.272,-0.304L0.272,-0.424L0.513,-0.424L0.513,-0L0.383,-0L0.364,-0.057C0.35,-0.032 0.333,-0.014 0.311,-0.002C0.29,0.01 0.265,0.017 0.236,0.017C0.201,0.017 0.169,0.008 0.139,-0.009C0.109,-0.025 0.086,-0.046 0.07,-0.071C0.055,-0.096 0.045,-0.122 0.041,-0.149C0.037,-0.176 0.035,-0.217 0.035,-0.271L0.035,-0.506C0.035,-0.581 0.039,-0.636 0.047,-0.67C0.056,-0.705 0.079,-0.736 0.117,-0.764C0.156,-0.793 0.206,-0.807 0.267,-0.807C0.327,-0.807 0.377,-0.795 0.417,-0.77C0.457,-0.745 0.483,-0.716 0.495,-0.682C0.507,-0.648 0.513,-0.598 0.513,-0.534L0.513,-0.5Z" style="fill:rgb(230,26,26);fill-rule:nonzero;"/>
            </g>
        </g>
        <g transform="matrix(0.806266,-0.591553,0.591553,0.806266,-77.0867,569.421)">
            <g transform="matrix(40,0,0,40,830.801,402.4)">
                <rect x="0.041" y="-0.791" width="0.206" height="0.791" style="fill:rgb(230,26,26);fill-rule:nonzero;"/>
            </g>
        </g>
        <g transform="matrix(0.838545,-0.544832,0.544832,0.838545,-79.8259,521.519)">
            <g transform="matrix(40,0,0,40,840.024,395.446)">
                <path d="M0.521,-0.446L0.315,-0.446L0.315,-0.583C0.315,-0.624 0.313,-0.649 0.309,-0.658C0.304,-0.668 0.295,-0.673 0.28,-0.673C0.263,-0.673 0.252,-0.667 0.248,-0.655C0.243,-0.643 0.241,-0.617 0.241,-0.577L0.241,-0.21C0.241,-0.172 0.243,-0.146 0.248,-0.135C0.252,-0.123 0.262,-0.117 0.278,-0.117C0.294,-0.117 0.304,-0.123 0.308,-0.135C0.313,-0.146 0.315,-0.174 0.315,-0.217L0.315,-0.316L0.521,-0.316L0.521,-0.286C0.521,-0.204 0.515,-0.146 0.504,-0.112C0.492,-0.078 0.467,-0.048 0.427,-0.022C0.387,0.004 0.339,0.017 0.281,0.017C0.221,0.017 0.171,0.006 0.132,-0.016C0.093,-0.038 0.067,-0.068 0.054,-0.107C0.042,-0.145 0.035,-0.203 0.035,-0.281L0.035,-0.512C0.035,-0.569 0.037,-0.611 0.041,-0.64C0.045,-0.668 0.057,-0.696 0.076,-0.722C0.095,-0.749 0.122,-0.769 0.156,-0.784C0.191,-0.8 0.23,-0.807 0.275,-0.807C0.335,-0.807 0.385,-0.795 0.425,-0.772C0.464,-0.749 0.49,-0.719 0.502,-0.684C0.515,-0.649 0.521,-0.595 0.521,-0.521L0.521,-0.446Z" style="fill:rgb(230,26,26);fill-rule:nonzero;"/>
            </g>
        </g>
        <g transform="matrix(0.887584,-0.460647,0.460647,0.887584,-77.7761,440.998)">
            <g transform="matrix(40,0,0,40,864.647,379.85)">
                <path d="M0.521,-0.446L0.315,-0.446L0.315,-0.583C0.315,-0.624 0.313,-0.649 0.309,-0.658C0.304,-0.668 0.295,-0.673 0.28,-0.673C0.263,-0.673 0.252,-0.667 0.248,-0.655C0.243,-0.643 0.241,-0.617 0.241,-0.577L0.241,-0.21C0.241,-0.172 0.243,-0.146 0.248,-0.135C0.252,-0.123 0.262,-0.117 0.278,-0.117C0.294,-0.117 0.304,-0.123 0.308,-0.135C0.313,-0.146 0.315,-0.174 0.315,-0.217L0.315,-0.316L0.521,-0.316L0.521,-0.286C0.521,-0.204 0.515,-0.146 0.504,-0.112C0.492,-0.078 0.467,-0.048 0.427,-0.022C0.387,0.004 0.339,0.017 0.281,0.017C0.221,0.017 0.171,0.006 0.132,-0.016C0.093,-0.038 0.067,-0.068 0.054,-0.107C0.042,-0.145 0.035,-0.203 0.035,-0.281L0.035,-0.512C0.035,-0.569 0.037,-0.611 0.041,-0.64C0.045,-0.668 0.057,-0.696 0.076,-0.722C0.095,-0.749 0.122,-0.769 0.156,-0.784C0.191,-0.8 0.23,-0.807 0.275,-0.807C0.335,-0.807 0.385,-0.795 0.425,-0.772C0.464,-0.749 0.49,-0.719 0.502,-0.684C0.515,-0.649 0.521,-0.595 0.521,-0.521L0.521,-0.446Z" style="fill:rgb(230,26,26);fill-rule:nonzero;"/>
            </g>
        </g>
        <g transform="matrix(0.918937,-0.394404,0.394404,0.918937,-74.0935,378.758)">
            <g transform="matrix(40,0,0,40,884.36,369.627)">
                <path d="M0.511,-0.328C0.511,-0.248 0.509,-0.192 0.505,-0.159C0.501,-0.126 0.49,-0.096 0.47,-0.068C0.45,-0.041 0.424,-0.02 0.39,-0.005C0.357,0.009 0.318,0.017 0.273,0.017C0.231,0.017 0.193,0.01 0.159,-0.004C0.125,-0.018 0.098,-0.039 0.078,-0.066C0.057,-0.094 0.045,-0.124 0.041,-0.157C0.037,-0.189 0.035,-0.246 0.035,-0.328L0.035,-0.463C0.035,-0.542 0.037,-0.599 0.041,-0.632C0.045,-0.665 0.056,-0.695 0.076,-0.722C0.096,-0.75 0.122,-0.771 0.156,-0.785C0.189,-0.8 0.228,-0.807 0.273,-0.807C0.315,-0.807 0.353,-0.8 0.387,-0.786C0.421,-0.773 0.448,-0.752 0.468,-0.724C0.489,-0.696 0.501,-0.666 0.505,-0.634C0.509,-0.601 0.511,-0.544 0.511,-0.463L0.511,-0.328ZM0.305,-0.587C0.305,-0.624 0.303,-0.648 0.299,-0.658C0.295,-0.668 0.287,-0.673 0.274,-0.673C0.263,-0.673 0.255,-0.669 0.249,-0.661C0.244,-0.653 0.241,-0.628 0.241,-0.587L0.241,-0.218C0.241,-0.172 0.243,-0.144 0.246,-0.133C0.25,-0.123 0.259,-0.117 0.272,-0.117C0.286,-0.117 0.295,-0.123 0.299,-0.136C0.303,-0.148 0.305,-0.178 0.305,-0.224L0.305,-0.587Z" style="fill:rgb(230,26,26);fill-rule:nonzero;"/>
            </g>
        </g>
        <g transform="matrix(0.948727,-0.316096,0.316096,0.948727,-67.7055,304.369)">
            <g transform="matrix(40,0,0,40,904.363,360.886)">
                <path d="M0.675,-0.791L0.675,-0L0.496,-0L0.496,-0.534L0.424,-0L0.296,-0L0.221,-0.521L0.221,-0L0.041,-0L0.041,-0.791L0.307,-0.791C0.315,-0.743 0.323,-0.687 0.332,-0.623L0.36,-0.421L0.407,-0.791L0.675,-0.791Z" style="fill:rgb(230,26,26);fill-rule:nonzero;"/>
            </g>
        </g>
        <g transform="matrix(0.97014,-0.242545,0.242545,0.97014,-57.5609,236.481)">
            <g transform="matrix(40,0,0,40,931.662,352.018)">
                <path d="M0.041,-0.791L0.384,-0.791L0.384,-0.632L0.247,-0.632L0.247,-0.482L0.375,-0.482L0.375,-0.332L0.247,-0.332L0.247,-0.158L0.397,-0.158L0.397,-0L0.041,-0L0.041,-0.791Z" style="fill:rgb(230,26,26);fill-rule:nonzero;"/>
            </g>
        </g>
        <g transform="matrix(0.982659,-0.185422,0.185422,0.982659,-48.0774,181.775)">
            <g transform="matrix(40,0,0,40,947.792,347.925)">
                <path d="M0.458,-0.791L0.386,-0.441L0.494,-0L0.304,-0C0.281,-0.079 0.26,-0.175 0.241,-0.288C0.236,-0.238 0.229,-0.185 0.22,-0.129L0.2,-0L0,-0L0.074,-0.441L0,-0.791L0.199,-0.791C0.202,-0.769 0.209,-0.732 0.22,-0.682C0.229,-0.643 0.236,-0.607 0.241,-0.575L0.285,-0.791L0.458,-0.791Z" style="fill:rgb(230,26,26);fill-rule:nonzero;"/>
            </g>
        </g>
        <g transform="matrix(0.995383,-0.0959792,0.0959792,0.995383,-28.4519,95.0437)">
            <g transform="matrix(40,0,0,40,973.741,343.276)">
                <path d="M0.041,-0.791L0.195,-0.791C0.294,-0.791 0.361,-0.786 0.396,-0.777C0.431,-0.768 0.458,-0.753 0.476,-0.732C0.494,-0.711 0.506,-0.688 0.51,-0.662C0.515,-0.637 0.517,-0.587 0.517,-0.512L0.517,-0.235C0.517,-0.164 0.514,-0.116 0.507,-0.093C0.5,-0.069 0.489,-0.05 0.472,-0.036C0.456,-0.023 0.435,-0.013 0.411,-0.008C0.386,-0.003 0.349,-0 0.3,-0L0.041,-0L0.041,-0.791ZM0.247,-0.655L0.247,-0.135C0.276,-0.135 0.294,-0.141 0.301,-0.153C0.308,-0.165 0.312,-0.197 0.312,-0.25L0.312,-0.557C0.312,-0.593 0.31,-0.616 0.308,-0.626C0.306,-0.636 0.301,-0.643 0.292,-0.648C0.284,-0.653 0.269,-0.655 0.247,-0.655Z" style="fill:rgb(230,26,26);fill-rule:nonzero;"/>
            </g>
        </g>
        <g transform="matrix(0.999667,-0.0258222,0.0258222,0.999667,-8.47747,25.8261)">
            <g transform="matrix(40,0,0,40,995.744,341.16)">
                <path d="M0.041,-0.791L0.187,-0.791C0.284,-0.791 0.349,-0.787 0.384,-0.779C0.418,-0.772 0.446,-0.753 0.468,-0.722C0.489,-0.691 0.5,-0.642 0.5,-0.575C0.5,-0.513 0.492,-0.472 0.477,-0.451C0.462,-0.43 0.432,-0.417 0.387,-0.413C0.427,-0.403 0.455,-0.389 0.469,-0.372C0.483,-0.355 0.491,-0.34 0.495,-0.325C0.498,-0.311 0.5,-0.272 0.5,-0.208L0.5,-0L0.309,-0L0.309,-0.263C0.309,-0.305 0.306,-0.331 0.299,-0.341C0.292,-0.351 0.275,-0.356 0.247,-0.356L0.247,-0L0.041,-0L0.041,-0.791ZM0.247,-0.655L0.247,-0.479C0.27,-0.479 0.286,-0.483 0.295,-0.489C0.304,-0.495 0.309,-0.516 0.309,-0.551L0.309,-0.594C0.309,-0.619 0.305,-0.636 0.296,-0.644C0.287,-0.651 0.27,-0.655 0.247,-0.655Z" style="fill:rgb(230,26,26);fill-rule:nonzero;"/>
            </g>
        </g>
        <g transform="matrix(0.999636,0.0269693,-0.0269693,0.999636,9.55941,-27.3119)">
            <g transform="matrix(40,0,0,40,1017.3,340.735)">
                <rect x="0.041" y="-0.791" width="0.206" height="0.791" style="fill:rgb(230,26,26);fill-rule:nonzero;"/>
            </g>
        </g>
        <g transform="matrix(0.996885,0.0788694,-0.0788694,0.996885,30.0934,-80.0797)">
            <g transform="matrix(40,0,0,40,1028.81,340.925)">
                <path d="M0.477,-0.551L0.286,-0.551L0.286,-0.61C0.286,-0.637 0.283,-0.655 0.278,-0.662C0.273,-0.67 0.265,-0.673 0.254,-0.673C0.242,-0.673 0.232,-0.668 0.226,-0.658C0.219,-0.648 0.216,-0.633 0.216,-0.612C0.216,-0.586 0.22,-0.566 0.227,-0.553C0.234,-0.539 0.253,-0.523 0.285,-0.504C0.377,-0.45 0.434,-0.405 0.458,-0.371C0.482,-0.336 0.494,-0.28 0.494,-0.202C0.494,-0.146 0.487,-0.104 0.474,-0.078C0.461,-0.051 0.435,-0.029 0.397,-0.01C0.36,0.008 0.316,0.017 0.266,0.017C0.211,0.017 0.164,0.006 0.125,-0.015C0.086,-0.035 0.06,-0.062 0.048,-0.094C0.036,-0.126 0.03,-0.172 0.03,-0.231L0.03,-0.283L0.221,-0.283L0.221,-0.187C0.221,-0.157 0.224,-0.138 0.229,-0.13C0.235,-0.121 0.244,-0.117 0.258,-0.117C0.271,-0.117 0.282,-0.123 0.288,-0.133C0.295,-0.144 0.298,-0.16 0.298,-0.181C0.298,-0.228 0.292,-0.258 0.279,-0.272C0.266,-0.287 0.234,-0.311 0.183,-0.344C0.132,-0.378 0.098,-0.403 0.082,-0.418C0.065,-0.433 0.051,-0.454 0.04,-0.481C0.029,-0.508 0.024,-0.543 0.024,-0.585C0.024,-0.646 0.032,-0.69 0.047,-0.718C0.063,-0.746 0.088,-0.768 0.122,-0.783C0.157,-0.799 0.198,-0.807 0.247,-0.807C0.3,-0.807 0.346,-0.799 0.384,-0.781C0.421,-0.764 0.446,-0.742 0.458,-0.716C0.47,-0.69 0.477,-0.645 0.477,-0.583L0.477,-0.551Z" style="fill:rgb(230,26,26);fill-rule:nonzero;"/>
            </g>
        </g>
        <g transform="matrix(0.989848,0.142132,-0.142132,0.989848,59.3471,-145.678)">
            <g transform="matrix(40,0,0,40,1049.42,342.591)">
                <path d="M0.455,-0.791L0.455,-0.632L0.333,-0.632L0.333,-0L0.127,-0L0.127,-0.632L0.006,-0.632L0.006,-0.791L0.455,-0.791Z" style="fill:rgb(230,26,26);fill-rule:nonzero;"/>
            </g>
        </g>
        <g transform="matrix(0.978345,0.206981,-0.206981,0.978345,94.5641,-213.522)">
            <g transform="matrix(40,0,0,40,1067.71,345.164)">
                <path d="M0.041,-0.791L0.187,-0.791C0.284,-0.791 0.349,-0.787 0.384,-0.779C0.418,-0.772 0.446,-0.753 0.468,-0.722C0.489,-0.691 0.5,-0.642 0.5,-0.575C0.5,-0.513 0.492,-0.472 0.477,-0.451C0.462,-0.43 0.432,-0.417 0.387,-0.413C0.427,-0.403 0.455,-0.389 0.469,-0.372C0.483,-0.355 0.491,-0.34 0.495,-0.325C0.498,-0.311 0.5,-0.272 0.5,-0.208L0.5,-0L0.309,-0L0.309,-0.263C0.309,-0.305 0.306,-0.331 0.299,-0.341C0.292,-0.351 0.275,-0.356 0.247,-0.356L0.247,-0L0.041,-0L0.041,-0.791ZM0.247,-0.655L0.247,-0.479C0.27,-0.479 0.286,-0.483 0.295,-0.489C0.304,-0.495 0.309,-0.516 0.309,-0.551L0.309,-0.594C0.309,-0.619 0.305,-0.636 0.296,-0.644C0.287,-0.651 0.27,-0.655 0.247,-0.655Z" style="fill:rgb(230,26,26);fill-rule:nonzero;"/>
            </g>
        </g>
        <g transform="matrix(0.96109,0.276237,-0.276237,0.96109,138.939,-287.154)">
            <g transform="matrix(40,0,0,40,1088.77,349.609)">
                <path d="M0.508,-0.791L0.508,-0.262C0.508,-0.202 0.506,-0.16 0.502,-0.136C0.499,-0.112 0.487,-0.087 0.468,-0.061C0.449,-0.036 0.423,-0.016 0.392,-0.003C0.36,0.01 0.323,0.017 0.281,0.017C0.234,0.017 0.192,0.009 0.156,-0.007C0.12,-0.022 0.093,-0.043 0.075,-0.068C0.057,-0.093 0.046,-0.119 0.043,-0.147C0.04,-0.175 0.038,-0.234 0.038,-0.323L0.038,-0.791L0.244,-0.791L0.244,-0.198C0.244,-0.163 0.246,-0.141 0.249,-0.132C0.253,-0.122 0.261,-0.117 0.272,-0.117C0.285,-0.117 0.293,-0.122 0.297,-0.133C0.301,-0.144 0.303,-0.169 0.303,-0.208L0.303,-0.791L0.508,-0.791Z" style="fill:rgb(230,26,26);fill-rule:nonzero;"/>
            </g>
        </g>
        <g transform="matrix(0.939014,0.343878,-0.343878,0.939014,189.99,-359.947)">
            <g transform="matrix(40,0,0,40,1109.81,355.673)">
                <path d="M0.041,-0.791L0.248,-0.791C0.304,-0.791 0.347,-0.786 0.377,-0.777C0.407,-0.769 0.43,-0.756 0.445,-0.739C0.46,-0.723 0.47,-0.703 0.476,-0.679C0.481,-0.655 0.484,-0.619 0.484,-0.569L0.484,-0.5C0.484,-0.45 0.479,-0.413 0.468,-0.39C0.458,-0.367 0.439,-0.349 0.411,-0.337C0.383,-0.325 0.347,-0.318 0.302,-0.318L0.247,-0.318L0.247,-0L0.041,-0L0.041,-0.791ZM0.247,-0.655L0.247,-0.454C0.252,-0.454 0.257,-0.454 0.262,-0.454C0.281,-0.454 0.294,-0.458 0.301,-0.468C0.308,-0.477 0.312,-0.496 0.312,-0.525L0.312,-0.59C0.312,-0.617 0.308,-0.635 0.299,-0.643C0.291,-0.651 0.273,-0.655 0.247,-0.655Z" style="fill:rgb(230,26,26);fill-rule:nonzero;"/>
            </g>
        </g>
        <g transform="matrix(0.915671,0.401929,-0.401929,0.915671,240.918,-423.07)">
            <g transform="matrix(40,0,0,40,1128.68,362.596)">
                <path d="M0.455,-0.791L0.455,-0.632L0.333,-0.632L0.333,-0L0.127,-0L0.127,-0.632L0.006,-0.632L0.006,-0.791L0.455,-0.791Z" style="fill:rgb(230,26,26);fill-rule:nonzero;"/>
            </g>
        </g>
        <g transform="matrix(0.894496,0.447076,-0.447076,0.894496,286.312,-473.089)">
            <g transform="matrix(40,0,0,40,1145.52,370.083)">
                <rect x="0.041" y="-0.791" width="0.206" height="0.791" style="fill:rgb(230,26,26);fill-rule:nonzero;"/>
            </g>
        </g>
        <g transform="matrix(0.871982,0.489538,-0.489538,0.871982,331.641,-517.816)">
            <g transform="matrix(40,0,0,40,1155.88,375.185)">
                <path d="M0.041,-0.791L0.389,-0.791L0.389,-0.632L0.247,-0.632L0.247,-0.482L0.374,-0.482L0.374,-0.332L0.247,-0.332L0.247,-0L0.041,-0L0.041,-0.791Z" style="fill:rgb(230,26,26);fill-rule:nonzero;"/>
            </g>
        </g>
        <g transform="matrix(0.820998,0.570931,-0.570931,0.820998,431.12,-602.195)">
            <g transform="matrix(40,0,0,40,1175.92,386.436)">
                <path d="M0.675,-0.791L0.675,-0L0.496,-0L0.496,-0.534L0.424,-0L0.296,-0L0.221,-0.521L0.221,-0L0.041,-0L0.041,-0.791L0.307,-0.791C0.315,-0.743 0.323,-0.687 0.332,-0.623L0.36,-0.421L0.407,-0.791L0.675,-0.791Z" style="fill:rgb(230,26,26);fill-rule:nonzero;"/>
            </g>
        </g>
        <g transform="matrix(0.768889,0.639382,-0.639382,0.768889,534.806,-673.743)">
            <g transform="matrix(40,0,0,40,1199.38,402.914)">
                <path d="M0.041,-0.791L0.246,-0.791C0.311,-0.791 0.36,-0.785 0.393,-0.775C0.427,-0.765 0.454,-0.745 0.474,-0.714C0.495,-0.683 0.505,-0.634 0.505,-0.565C0.505,-0.519 0.498,-0.487 0.483,-0.469C0.469,-0.451 0.44,-0.437 0.397,-0.427C0.445,-0.416 0.477,-0.398 0.494,-0.373C0.511,-0.348 0.52,-0.31 0.52,-0.259L0.52,-0.186C0.52,-0.132 0.513,-0.093 0.501,-0.067C0.489,-0.041 0.47,-0.024 0.443,-0.014C0.416,-0.005 0.361,-0 0.279,-0L0.041,-0L0.041,-0.791ZM0.247,-0.655L0.247,-0.479C0.255,-0.48 0.262,-0.48 0.267,-0.48C0.287,-0.48 0.3,-0.485 0.306,-0.495C0.311,-0.505 0.314,-0.533 0.314,-0.58C0.314,-0.605 0.312,-0.622 0.307,-0.632C0.303,-0.642 0.297,-0.648 0.289,-0.651C0.282,-0.653 0.268,-0.655 0.247,-0.655ZM0.247,-0.356L0.247,-0.135C0.276,-0.136 0.294,-0.141 0.302,-0.149C0.31,-0.157 0.314,-0.177 0.314,-0.209L0.314,-0.283C0.314,-0.317 0.31,-0.337 0.303,-0.344C0.296,-0.351 0.277,-0.355 0.247,-0.356Z" style="fill:rgb(230,26,26);fill-rule:nonzero;"/>
            </g>
        </g>
        <g transform="matrix(0.721288,0.692635,-0.692635,0.721288,627.906,-726.259)">
            <g transform="matrix(40,0,0,40,1216.38,417.084)">
                <path d="M0.396,-0.791L0.514,-0L0.303,-0L0.293,-0.142L0.219,-0.142L0.207,-0L-0.006,-0L0.099,-0.791L0.396,-0.791ZM0.287,-0.282C0.277,-0.372 0.266,-0.482 0.256,-0.614C0.235,-0.463 0.222,-0.352 0.217,-0.282L0.287,-0.282Z" style="fill:rgb(230,26,26);fill-rule:nonzero;"/>
            </g>
        </g>
    </g>
    <g transform="matrix(-0.995963,-0.089765,0.089765,-0.995963,1503.12,1259.25)">
        <g transform="matrix(0.351761,-0.93609,0.93609,0.351761,-36.5149,1039.68)">
            <g transform="matrix(40,0,0,40,732.421,546.207)">
                <path d="M0.041,-0.791L0.246,-0.791C0.311,-0.791 0.36,-0.785 0.393,-0.775C0.427,-0.765 0.454,-0.745 0.474,-0.714C0.495,-0.683 0.505,-0.634 0.505,-0.565C0.505,-0.519 0.498,-0.487 0.483,-0.469C0.469,-0.451 0.44,-0.437 0.397,-0.427C0.445,-0.416 0.477,-0.398 0.494,-0.373C0.511,-0.348 0.52,-0.31 0.52,-0.259L0.52,-0.186C0.52,-0.132 0.513,-0.093 0.501,-0.067C0.489,-0.041 0.47,-0.024 0.443,-0.014C0.416,-0.005 0.361,-0 0.279,-0L0.041,-0L0.041,-0.791ZM0.247,-0.655L0.247,-0.479C0.255,-0.48 0.262,-0.48 0.267,-0.48C0.287,-0.48 0.3,-0.485 0.306,-0.495C0.311,-0.505 0.314,-0.533 0.314,-0.58C0.314,-0.605 0.312,-0.622 0.307,-0.632C0.303,-0.642 0.297,-0.648 0.289,-0.651C0.282,-0.653 0.268,-0.655 0.247,-0.655ZM0.247,-0.356L0.247,-0.135C0.276,-0.136 0.294,-0.141 0.302,-0.149C0.31,-0.157 0.314,-0.177 0.314,-0.209L0.314,-0.283C0.314,-0.317 0.31,-0.337 0.303,-0.344C0.296,-0.351 0.277,-0.355 0.247,-0.356Z" style="fill:rgb(230,26,26);fill-rule:nonzero;"/>
            </g>
        </g>
        <g transform="matrix(0.413207,-0.910637,0.910637,0.413207,-44.1888,982.513)">
            <g transform="matrix(40,0,0,40,740.281,525.545)">
                <path d="M0.247,-0.791L0.247,-0.158L0.372,-0.158L0.372,-0L0.041,-0L0.041,-0.791L0.247,-0.791Z" style="fill:rgb(230,26,26);fill-rule:nonzero;"/>
            </g>
        </g>
        <g transform="matrix(0.468587,-0.883417,0.883417,0.468587,-55.3014,931.323)">
            <g transform="matrix(40,0,0,40,746.462,511.628)">
                <path d="M0.508,-0.791L0.508,-0.262C0.508,-0.202 0.506,-0.16 0.502,-0.136C0.499,-0.112 0.487,-0.087 0.468,-0.061C0.449,-0.036 0.423,-0.016 0.392,-0.003C0.36,0.01 0.323,0.017 0.281,0.017C0.234,0.017 0.192,0.009 0.156,-0.007C0.12,-0.022 0.093,-0.043 0.075,-0.068C0.057,-0.093 0.046,-0.119 0.043,-0.147C0.04,-0.175 0.038,-0.234 0.038,-0.323L0.038,-0.791L0.244,-0.791L0.244,-0.198C0.244,-0.163 0.246,-0.141 0.249,-0.132C0.253,-0.122 0.261,-0.117 0.272,-0.117C0.285,-0.117 0.293,-0.122 0.297,-0.133C0.301,-0.144 0.303,-0.169 0.303,-0.208L0.303,-0.791L0.508,-0.791Z" style="fill:rgb(230,26,26);fill-rule:nonzero;"/>
            </g>
        </g>
        <g transform="matrix(0.527035,-0.849844,0.849844,0.527035,-60.4787,876.002)">
            <g transform="matrix(40,0,0,40,756.779,492.336)">
                <path d="M0.041,-0.791L0.384,-0.791L0.384,-0.632L0.247,-0.632L0.247,-0.482L0.375,-0.482L0.375,-0.332L0.247,-0.332L0.247,-0.158L0.397,-0.158L0.397,-0L0.041,-0L0.041,-0.791Z" style="fill:rgb(230,26,26);fill-rule:nonzero;"/>
            </g>
        </g>
        <g transform="matrix(0.59917,-0.800622,0.800622,0.59917,-69.732,805.321)">
            <g transform="matrix(40,0,0,40,769.412,472.302)">
                <path d="M0.511,-0.328C0.511,-0.248 0.509,-0.192 0.505,-0.159C0.501,-0.126 0.49,-0.096 0.47,-0.068C0.45,-0.041 0.424,-0.02 0.39,-0.005C0.357,0.009 0.318,0.017 0.273,0.017C0.231,0.017 0.193,0.01 0.159,-0.004C0.125,-0.018 0.098,-0.039 0.078,-0.066C0.057,-0.094 0.045,-0.124 0.041,-0.157C0.037,-0.189 0.035,-0.246 0.035,-0.328L0.035,-0.463C0.035,-0.542 0.037,-0.599 0.041,-0.632C0.045,-0.665 0.056,-0.695 0.076,-0.722C0.096,-0.75 0.122,-0.771 0.156,-0.785C0.189,-0.8 0.228,-0.807 0.273,-0.807C0.315,-0.807 0.353,-0.8 0.387,-0.786C0.421,-0.773 0.448,-0.752 0.468,-0.724C0.489,-0.696 0.501,-0.666 0.505,-0.634C0.509,-0.601 0.511,-0.544 0.511,-0.463L0.511,-0.328ZM0.305,-0.587C0.305,-0.624 0.303,-0.648 0.299,-0.658C0.295,-0.668 0.287,-0.673 0.274,-0.673C0.263,-0.673 0.255,-0.669 0.249,-0.661C0.244,-0.653 0.241,-0.628 0.241,-0.587L0.241,-0.218C0.241,-0.172 0.243,-0.144 0.246,-0.133C0.25,-0.123 0.259,-0.117 0.272,-0.117C0.286,-0.117 0.295,-0.123 0.299,-0.136C0.303,-0.148 0.305,-0.178 0.305,-0.224L0.305,-0.587Z" style="fill:rgb(230,26,26);fill-rule:nonzero;"/>
            </g>
        </g>
        <g transform="matrix(0.656568,-0.754267,0.754267,0.656568,-74.2977,746.411)">
            <g transform="matrix(40,0,0,40,782.508,454.794)">
                <path d="M0.521,-0.446L0.315,-0.446L0.315,-0.583C0.315,-0.624 0.313,-0.649 0.309,-0.658C0.304,-0.668 0.295,-0.673 0.28,-0.673C0.263,-0.673 0.252,-0.667 0.248,-0.655C0.243,-0.643 0.241,-0.617 0.241,-0.577L0.241,-0.21C0.241,-0.172 0.243,-0.146 0.248,-0.135C0.252,-0.123 0.262,-0.117 0.278,-0.117C0.294,-0.117 0.304,-0.123 0.308,-0.135C0.313,-0.146 0.315,-0.174 0.315,-0.217L0.315,-0.316L0.521,-0.316L0.521,-0.286C0.521,-0.204 0.515,-0.146 0.504,-0.112C0.492,-0.078 0.467,-0.048 0.427,-0.022C0.387,0.004 0.339,0.017 0.281,0.017C0.221,0.017 0.171,0.006 0.132,-0.016C0.093,-0.038 0.067,-0.068 0.054,-0.107C0.042,-0.145 0.035,-0.203 0.035,-0.281L0.035,-0.512C0.035,-0.569 0.037,-0.611 0.041,-0.64C0.045,-0.668 0.057,-0.696 0.076,-0.722C0.095,-0.749 0.122,-0.769 0.156,-0.784C0.191,-0.8 0.23,-0.807 0.275,-0.807C0.335,-0.807 0.385,-0.795 0.425,-0.772C0.464,-0.749 0.49,-0.719 0.502,-0.684C0.515,-0.649 0.521,-0.595 0.521,-0.521L0.521,-0.446Z" style="fill:rgb(230,26,26);fill-rule:nonzero;"/>
            </g>
        </g>
        <g transform="matrix(0.704585,-0.70962,0.70962,0.704585,-75.443,695.072)">
            <g transform="matrix(40,0,0,40,797.098,438.147)">
                <path d="M0.041,-0.791L0.384,-0.791L0.384,-0.632L0.247,-0.632L0.247,-0.482L0.375,-0.482L0.375,-0.332L0.247,-0.332L0.247,-0.158L0.397,-0.158L0.397,-0L0.041,-0L0.041,-0.791Z" style="fill:rgb(230,26,26);fill-rule:nonzero;"/>
            </g>
        </g>
        <g transform="matrix(0.745401,-0.666616,0.666616,0.745401,-78.2667,647.672)">
            <g transform="matrix(40,0,0,40,808.766,426.299)">
                <path d="M0.396,-0.791L0.514,-0L0.303,-0L0.293,-0.142L0.219,-0.142L0.207,-0L-0.006,-0L0.099,-0.791L0.396,-0.791ZM0.287,-0.282C0.277,-0.372 0.266,-0.482 0.256,-0.614C0.235,-0.463 0.222,-0.352 0.217,-0.282L0.287,-0.282Z" style="fill:rgb(230,26,26);fill-rule:nonzero;"/>
            </g>
        </g>
        <g transform="matrix(0.789426,-0.613845,0.613845,0.789426,-79.8504,592.667)">
            <g transform="matrix(40,0,0,40,823.919,412.72)">
                <path d="M0.5,-0.791L0.5,-0L0.32,-0L0.213,-0.359L0.213,-0L0.041,-0L0.041,-0.791L0.213,-0.791L0.328,-0.435L0.328,-0.791L0.5,-0.791Z" style="fill:rgb(230,26,26);fill-rule:nonzero;"/>
            </g>
        </g>
        <g transform="matrix(0.842355,-0.538922,0.538922,0.842355,-79.5957,518.674)">
            <g transform="matrix(40,0,0,40,846.77,395.39)">
                <path d="M0.477,-0.551L0.286,-0.551L0.286,-0.61C0.286,-0.637 0.283,-0.655 0.278,-0.662C0.273,-0.67 0.265,-0.673 0.254,-0.673C0.242,-0.673 0.232,-0.668 0.226,-0.658C0.219,-0.648 0.216,-0.633 0.216,-0.612C0.216,-0.586 0.22,-0.566 0.227,-0.553C0.234,-0.539 0.253,-0.523 0.285,-0.504C0.377,-0.45 0.434,-0.405 0.458,-0.371C0.482,-0.336 0.494,-0.28 0.494,-0.202C0.494,-0.146 0.487,-0.104 0.474,-0.078C0.461,-0.051 0.435,-0.029 0.397,-0.01C0.36,0.008 0.316,0.017 0.266,0.017C0.211,0.017 0.164,0.006 0.125,-0.015C0.086,-0.035 0.06,-0.062 0.048,-0.094C0.036,-0.126 0.03,-0.172 0.03,-0.231L0.03,-0.283L0.221,-0.283L0.221,-0.187C0.221,-0.157 0.224,-0.138 0.229,-0.13C0.235,-0.121 0.244,-0.117 0.258,-0.117C0.271,-0.117 0.282,-0.123 0.288,-0.133C0.295,-0.144 0.298,-0.16 0.298,-0.181C0.298,-0.228 0.292,-0.258 0.279,-0.272C0.266,-0.287 0.234,-0.311 0.183,-0.344C0.132,-0.378 0.098,-0.403 0.082,-0.418C0.065,-0.433 0.051,-0.454 0.04,-0.481C0.029,-0.508 0.024,-0.543 0.024,-0.585C0.024,-0.646 0.032,-0.69 0.047,-0.718C0.063,-0.746 0.088,-0.768 0.122,-0.783C0.157,-0.799 0.198,-0.807 0.247,-0.807C0.3,-0.807 0.346,-0.799 0.384,-0.781C0.421,-0.764 0.446,-0.742 0.458,-0.716C0.47,-0.69 0.477,-0.645 0.477,-0.583L0.477,-0.551Z" style="fill:rgb(230,26,26);fill-rule:nonzero;"/>
            </g>
        </g>
        <g transform="matrix(0.885695,-0.464268,0.464268,0.885695,-79.5011,445.074)">
            <g transform="matrix(40,0,0,40,864.118,383.99)">
                <path d="M0.814,-0.791L0.723,-0L0.466,-0C0.443,-0.121 0.422,-0.259 0.404,-0.414C0.396,-0.348 0.377,-0.21 0.347,-0L0.092,-0L0,-0.791L0.2,-0.791L0.221,-0.515L0.242,-0.249C0.25,-0.386 0.269,-0.567 0.299,-0.791L0.513,-0.791C0.516,-0.767 0.523,-0.681 0.535,-0.53L0.558,-0.229C0.569,-0.421 0.588,-0.608 0.615,-0.791L0.814,-0.791Z" style="fill:rgb(230,26,26);fill-rule:nonzero;"/>
            </g>
        </g>
        <g transform="matrix(0.923007,-0.384782,0.384782,0.923007,-73.2479,372.064)">
            <g transform="matrix(40,0,0,40,893.1,369.066)">
                <path d="M0.511,-0.328C0.511,-0.248 0.509,-0.192 0.505,-0.159C0.501,-0.126 0.49,-0.096 0.47,-0.068C0.45,-0.041 0.424,-0.02 0.39,-0.005C0.357,0.009 0.318,0.017 0.273,0.017C0.231,0.017 0.193,0.01 0.159,-0.004C0.125,-0.018 0.098,-0.039 0.078,-0.066C0.057,-0.094 0.045,-0.124 0.041,-0.157C0.037,-0.189 0.035,-0.246 0.035,-0.328L0.035,-0.463C0.035,-0.542 0.037,-0.599 0.041,-0.632C0.045,-0.665 0.056,-0.695 0.076,-0.722C0.096,-0.75 0.122,-0.771 0.156,-0.785C0.189,-0.8 0.228,-0.807 0.273,-0.807C0.315,-0.807 0.353,-0.8 0.387,-0.786C0.421,-0.773 0.448,-0.752 0.468,-0.724C0.489,-0.696 0.501,-0.666 0.505,-0.634C0.509,-0.601 0.511,-0.544 0.511,-0.463L0.511,-0.328ZM0.305,-0.587C0.305,-0.624 0.303,-0.648 0.299,-0.658C0.295,-0.668 0.287,-0.673 0.274,-0.673C0.263,-0.673 0.255,-0.669 0.249,-0.661C0.244,-0.653 0.241,-0.628 0.241,-0.587L0.241,-0.218C0.241,-0.172 0.243,-0.144 0.246,-0.133C0.25,-0.123 0.259,-0.117 0.272,-0.117C0.286,-0.117 0.295,-0.123 0.299,-0.136C0.303,-0.148 0.305,-0.178 0.305,-0.224L0.305,-0.587Z" style="fill:rgb(230,26,26);fill-rule:nonzero;"/>
            </g>
        </g>
        <g transform="matrix(0.945964,-0.324272,0.324272,0.945964,-67.6222,315.638)">
            <g transform="matrix(40,0,0,40,913.263,360.72)">
                <path d="M0.455,-0.791L0.455,-0.632L0.333,-0.632L0.333,-0L0.127,-0L0.127,-0.632L0.006,-0.632L0.006,-0.791L0.455,-0.791Z" style="fill:rgb(230,26,26);fill-rule:nonzero;"/>
            </g>
        </g>
        <g transform="matrix(0.970642,-0.240529,0.240529,0.970642,-57.3024,235.849)">
            <g transform="matrix(40,0,0,40,937.498,352.662)">
                <path d="M0.511,-0L0.511,0.096L0.356,0.096C0.319,0.096 0.292,0.093 0.277,0.087C0.262,0.081 0.251,0.073 0.246,0.062C0.24,0.05 0.238,0.03 0.238,-0C0.191,-0.001 0.151,-0.014 0.118,-0.037C0.084,-0.06 0.062,-0.089 0.051,-0.125C0.041,-0.16 0.035,-0.214 0.035,-0.285L0.035,-0.529C0.035,-0.583 0.038,-0.624 0.045,-0.652C0.051,-0.68 0.064,-0.707 0.084,-0.732C0.104,-0.757 0.129,-0.775 0.161,-0.788C0.192,-0.801 0.227,-0.807 0.265,-0.807C0.311,-0.807 0.351,-0.799 0.387,-0.784C0.423,-0.768 0.45,-0.748 0.468,-0.724C0.486,-0.7 0.497,-0.675 0.503,-0.649C0.508,-0.623 0.511,-0.585 0.511,-0.534L0.511,-0.277C0.511,-0.207 0.507,-0.159 0.5,-0.134C0.494,-0.109 0.481,-0.089 0.461,-0.074C0.442,-0.059 0.416,-0.048 0.384,-0.04C0.385,-0.022 0.388,-0.011 0.395,-0.007C0.401,-0.002 0.416,-0 0.44,-0L0.511,-0ZM0.305,-0.587C0.305,-0.624 0.303,-0.648 0.299,-0.658C0.295,-0.668 0.287,-0.673 0.274,-0.673C0.263,-0.673 0.255,-0.669 0.249,-0.661C0.244,-0.653 0.241,-0.628 0.241,-0.587L0.241,-0.218C0.241,-0.172 0.243,-0.144 0.246,-0.133C0.25,-0.123 0.259,-0.117 0.272,-0.117C0.286,-0.117 0.295,-0.123 0.299,-0.136C0.303,-0.148 0.305,-0.178 0.305,-0.224L0.305,-0.587Z" style="fill:rgb(230,26,26);fill-rule:nonzero;"/>
            </g>
        </g>
        <g transform="matrix(0.985003,-0.172539,0.172539,0.985003,-45.5654,170.617)">
            <g transform="matrix(40,0,0,40,958.665,347.416)">
                <path d="M0.508,-0.791L0.508,-0.262C0.508,-0.202 0.506,-0.16 0.502,-0.136C0.499,-0.112 0.487,-0.087 0.468,-0.061C0.449,-0.036 0.423,-0.016 0.392,-0.003C0.36,0.01 0.323,0.017 0.281,0.017C0.234,0.017 0.192,0.009 0.156,-0.007C0.12,-0.022 0.093,-0.043 0.075,-0.068C0.057,-0.093 0.046,-0.119 0.043,-0.147C0.04,-0.175 0.038,-0.234 0.038,-0.323L0.038,-0.791L0.244,-0.791L0.244,-0.198C0.244,-0.163 0.246,-0.141 0.249,-0.132C0.253,-0.122 0.261,-0.117 0.272,-0.117C0.285,-0.117 0.293,-0.122 0.297,-0.133C0.301,-0.144 0.303,-0.169 0.303,-0.208L0.303,-0.791L0.508,-0.791Z" style="fill:rgb(230,26,26);fill-rule:nonzero;"/>
            </g>
        </g>
        <g transform="matrix(0.994322,-0.106415,0.106415,0.994322,-31.0056,106.261)">
            <g transform="matrix(40,0,0,40,980.215,343.669)">
                <path d="M0.396,-0.791L0.514,-0L0.303,-0L0.293,-0.142L0.219,-0.142L0.207,-0L-0.006,-0L0.099,-0.791L0.396,-0.791ZM0.287,-0.282C0.277,-0.372 0.266,-0.482 0.256,-0.614C0.235,-0.463 0.222,-0.352 0.217,-0.282L0.287,-0.282Z" style="fill:rgb(230,26,26);fill-rule:nonzero;"/>
            </g>
        </g>
        <g transform="matrix(0.999209,-0.0397736,0.0397736,0.999209,-12.7901,40.0603)">
            <g transform="matrix(40,0,0,40,1000.41,341.475)">
                <path d="M0.041,-0.791L0.195,-0.791C0.294,-0.791 0.361,-0.786 0.396,-0.777C0.431,-0.768 0.458,-0.753 0.476,-0.732C0.494,-0.711 0.506,-0.688 0.51,-0.662C0.515,-0.637 0.517,-0.587 0.517,-0.512L0.517,-0.235C0.517,-0.164 0.514,-0.116 0.507,-0.093C0.5,-0.069 0.489,-0.05 0.472,-0.036C0.456,-0.023 0.435,-0.013 0.411,-0.008C0.386,-0.003 0.349,-0 0.3,-0L0.041,-0L0.041,-0.791ZM0.247,-0.655L0.247,-0.135C0.276,-0.135 0.294,-0.141 0.301,-0.153C0.308,-0.165 0.312,-0.197 0.312,-0.25L0.312,-0.557C0.312,-0.593 0.31,-0.616 0.308,-0.626C0.306,-0.636 0.301,-0.643 0.292,-0.648C0.284,-0.653 0.269,-0.655 0.247,-0.655Z" style="fill:rgb(230,26,26);fill-rule:nonzero;"/>
            </g>
        </g>
        <g transform="matrix(0.99961,0.0279252,-0.0279252,0.99961,9.9101,-28.4226)">
            <g transform="matrix(40,0,0,40,1022.57,340.6)">
                <path d="M0.041,-0.791L0.187,-0.791C0.284,-0.791 0.349,-0.787 0.384,-0.779C0.418,-0.772 0.446,-0.753 0.468,-0.722C0.489,-0.691 0.5,-0.642 0.5,-0.575C0.5,-0.513 0.492,-0.472 0.477,-0.451C0.462,-0.43 0.432,-0.417 0.387,-0.413C0.427,-0.403 0.455,-0.389 0.469,-0.372C0.483,-0.355 0.491,-0.34 0.495,-0.325C0.498,-0.311 0.5,-0.272 0.5,-0.208L0.5,-0L0.309,-0L0.309,-0.263C0.309,-0.305 0.306,-0.331 0.299,-0.341C0.292,-0.351 0.275,-0.356 0.247,-0.356L0.247,-0L0.041,-0L0.041,-0.791ZM0.247,-0.655L0.247,-0.479C0.27,-0.479 0.286,-0.483 0.295,-0.489C0.304,-0.495 0.309,-0.516 0.309,-0.551L0.309,-0.594C0.309,-0.619 0.305,-0.636 0.296,-0.644C0.287,-0.651 0.27,-0.655 0.247,-0.655Z" style="fill:rgb(230,26,26);fill-rule:nonzero;"/>
            </g>
        </g>
        <g transform="matrix(0.995654,0.0931304,-0.0931304,0.995654,36.3157,-95.7559)">
            <g transform="matrix(40,0,0,40,1044.12,341.219)">
                <path d="M0.396,-0.791L0.514,-0L0.303,-0L0.293,-0.142L0.219,-0.142L0.207,-0L-0.006,-0L0.099,-0.791L0.396,-0.791ZM0.287,-0.282C0.277,-0.372 0.266,-0.482 0.256,-0.614C0.235,-0.463 0.222,-0.352 0.217,-0.282L0.287,-0.282Z" style="fill:rgb(230,26,26);fill-rule:nonzero;"/>
            </g>
        </g>
        <g transform="matrix(0.987301,0.158863,-0.158863,0.987301,68.0205,-164.728)">
            <g transform="matrix(40,0,0,40,1064.34,343.088)">
                <path d="M0.5,-0.791L0.5,-0L0.32,-0L0.213,-0.359L0.213,-0L0.041,-0L0.041,-0.791L0.213,-0.791L0.328,-0.435L0.328,-0.791L0.5,-0.791Z" style="fill:rgb(230,26,26);fill-rule:nonzero;"/>
            </g>
        </g>
        <g transform="matrix(0.975183,0.221403,-0.221403,0.975183,103.676,-231.771)">
            <g transform="matrix(40,0,0,40,1085.68,346.572)">
                <path d="M0.455,-0.791L0.455,-0.632L0.333,-0.632L0.333,-0L0.127,-0L0.127,-0.632L0.006,-0.632L0.006,-0.791L0.455,-0.791Z" style="fill:rgb(230,26,26);fill-rule:nonzero;"/>
            </g>
        </g>
        <g transform="matrix(0.948846,0.31574,-0.31574,0.948846,168.047,-332.616)">
            <g transform="matrix(40,0,0,40,1110.53,352.31)">
                <path d="M0.675,-0.791L0.675,-0L0.496,-0L0.496,-0.534L0.424,-0L0.296,-0L0.221,-0.521L0.221,-0L0.041,-0L0.041,-0.791L0.307,-0.791C0.315,-0.743 0.323,-0.687 0.332,-0.623L0.36,-0.421L0.407,-0.791L0.675,-0.791Z" style="fill:rgb(230,26,26);fill-rule:nonzero;"/>
            </g>
        </g>
        <g transform="matrix(0.920984,0.389599,-0.389599,0.920984,230.752,-414.689)">
            <g transform="matrix(40,0,0,40,1137.72,361.536)">
                <path d="M0.396,-0.791L0.514,-0L0.303,-0L0.293,-0.142L0.219,-0.142L0.207,-0L-0.006,-0L0.099,-0.791L0.396,-0.791ZM0.287,-0.282C0.277,-0.372 0.266,-0.482 0.256,-0.614C0.235,-0.463 0.222,-0.352 0.217,-0.282L0.287,-0.282Z" style="fill:rgb(230,26,26);fill-rule:nonzero;"/>
            </g>
        </g>
        <g transform="matrix(0.89804,0.439913,-0.439913,0.89804,279.832,-470.257)">
            <g transform="matrix(40,0,0,40,1154.4,368.55)">
                <path d="M0.455,-0.791L0.455,-0.632L0.333,-0.632L0.333,-0L0.127,-0L0.127,-0.632L0.006,-0.632L0.006,-0.791L0.455,-0.791Z" style="fill:rgb(230,26,26);fill-rule:nonzero;"/>
            </g>
        </g>
        <g transform="matrix(0.867684,0.497115,-0.497115,0.867684,342.161,-532.281)">
            <g transform="matrix(40,0,0,40,1170.98,376.616)">
                <path d="M0.041,-0.791L0.187,-0.791C0.284,-0.791 0.349,-0.787 0.384,-0.779C0.418,-0.772 0.446,-0.753 0.468,-0.722C0.489,-0.691 0.5,-0.642 0.5,-0.575C0.5,-0.513 0.492,-0.472 0.477,-0.451C0.462,-0.43 0.432,-0.417 0.387,-0.413C0.427,-0.403 0.455,-0.389 0.469,-0.372C0.483,-0.355 0.491,-0.34 0.495,-0.325C0.498,-0.311 0.5,-0.272 0.5,-0.208L0.5,-0L0.309,-0L0.309,-0.263C0.309,-0.305 0.306,-0.331 0.299,-0.341C0.292,-0.351 0.275,-0.356 0.247,-0.356L0.247,-0L0.041,-0L0.041,-0.791ZM0.247,-0.655L0.247,-0.479C0.27,-0.479 0.286,-0.483 0.295,-0.489C0.304,-0.495 0.309,-0.516 0.309,-0.551L0.309,-0.594C0.309,-0.619 0.305,-0.636 0.296,-0.644C0.287,-0.651 0.27,-0.655 0.247,-0.655Z" style="fill:rgb(230,26,26);fill-rule:nonzero;"/>
            </g>
        </g>
        <g transform="matrix(0.839954,0.542658,-0.542658,0.839954,400.631,-583.534)">
            <g transform="matrix(40,0,0,40,1189.59,387.43)">
                <rect x="0.041" y="-0.791" width="0.206" height="0.791" style="fill:rgb(230,26,26);fill-rule:nonzero;"/>
            </g>
        </g>
        <g transform="matrix(0.811163,0.58482,-0.58482,0.811163,456.689,-627.088)">
            <g transform="matrix(40,0,0,40,1199.38,393.629)">
                <path d="M0.458,-0.791L0.386,-0.441L0.494,-0L0.304,-0C0.281,-0.079 0.26,-0.175 0.241,-0.288C0.236,-0.238 0.229,-0.185 0.22,-0.129L0.2,-0L0,-0L0.074,-0.441L0,-0.791L0.199,-0.791C0.202,-0.769 0.209,-0.732 0.22,-0.682C0.229,-0.643 0.236,-0.607 0.241,-0.575L0.285,-0.791L0.458,-0.791Z" style="fill:rgb(230,26,26);fill-rule:nonzero;"/>
            </g>
        </g>
        <g transform="matrix(0.748362,0.663291,-0.663291,0.748362,578.54,-706.72)">
            <g transform="matrix(40,0,0,40,1220.69,409.124)">
                <path d="M0.675,-0.791L0.675,-0L0.496,-0L0.496,-0.534L0.424,-0L0.296,-0L0.221,-0.521L0.221,-0L0.041,-0L0.041,-0.791L0.307,-0.791C0.315,-0.743 0.323,-0.687 0.332,-0.623L0.36,-0.421L0.407,-0.791L0.675,-0.791Z" style="fill:rgb(230,26,26);fill-rule:nonzero;"/>
            </g>
        </g>
        <g transform="matrix(0.690694,0.723147,-0.723147,0.690694,693.841,-765.718)">
            <g transform="matrix(40,0,0,40,1242.03,428.229)">
                <path d="M0.511,-0.328C0.511,-0.248 0.509,-0.192 0.505,-0.159C0.501,-0.126 0.49,-0.096 0.47,-0.068C0.45,-0.041 0.424,-0.02 0.39,-0.005C0.357,0.009 0.318,0.017 0.273,0.017C0.231,0.017 0.193,0.01 0.159,-0.004C0.125,-0.018 0.098,-0.039 0.078,-0.066C0.057,-0.094 0.045,-0.124 0.041,-0.157C0.037,-0.189 0.035,-0.246 0.035,-0.328L0.035,-0.463C0.035,-0.542 0.037,-0.599 0.041,-0.632C0.045,-0.665 0.056,-0.695 0.076,-0.722C0.096,-0.75 0.122,-0.771 0.156,-0.785C0.189,-0.8 0.228,-0.807 0.273,-0.807C0.315,-0.807 0.353,-0.8 0.387,-0.786C0.421,-0.773 0.448,-0.752 0.468,-0.724C0.489,-0.696 0.501,-0.666 0.505,-0.634C0.509,-0.601 0.511,-0.544 0.511,-0.463L0.511,-0.328ZM0.305,-0.587C0.305,-0.624 0.303,-0.648 0.299,-0.658C0.295,-0.668 0.287,-0.673 0.274,-0.673C0.263,-0.673 0.255,-0.669 0.249,-0.661C0.244,-0.653 0.241,-0.628 0.241,-0.587L0.241,-0.218C0.241,-0.172 0.243,-0.144 0.246,-0.133C0.25,-0.123 0.259,-0.117 0.272,-0.117C0.286,-0.117 0.295,-0.123 0.299,-0.136C0.303,-0.148 0.305,-0.178 0.305,-0.224L0.305,-0.587Z" style="fill:rgb(230,26,26);fill-rule:nonzero;"/>
            </g>
        </g>
        <g transform="matrix(0.642157,0.766573,-0.766573,0.642157,790.311,-804.741)">
            <g transform="matrix(40,0,0,40,1257.12,444.133)">
                <path d="M0.041,-0.791L0.389,-0.791L0.389,-0.632L0.247,-0.632L0.247,-0.482L0.374,-0.482L0.374,-0.332L0.247,-0.332L0.247,-0L0.041,-0L0.041,-0.791Z" style="fill:rgb(230,26,26);fill-rule:nonzero;"/>
            </g>
        </g>
        <g transform="matrix(0.594159,0.804347,-0.804347,0.594159,881.371,-834.279)">
            <g transform="matrix(40,0,0,40,1267.43,456.269)">
                <path d="M0.511,-0.328C0.511,-0.248 0.509,-0.192 0.505,-0.159C0.501,-0.126 0.49,-0.096 0.47,-0.068C0.45,-0.041 0.424,-0.02 0.39,-0.005C0.357,0.009 0.318,0.017 0.273,0.017C0.231,0.017 0.193,0.01 0.159,-0.004C0.125,-0.018 0.098,-0.039 0.078,-0.066C0.057,-0.094 0.045,-0.124 0.041,-0.157C0.037,-0.189 0.035,-0.246 0.035,-0.328L0.035,-0.463C0.035,-0.542 0.037,-0.599 0.041,-0.632C0.045,-0.665 0.056,-0.695 0.076,-0.722C0.096,-0.75 0.122,-0.771 0.156,-0.785C0.189,-0.8 0.228,-0.807 0.273,-0.807C0.315,-0.807 0.353,-0.8 0.387,-0.786C0.421,-0.773 0.448,-0.752 0.468,-0.724C0.489,-0.696 0.501,-0.666 0.505,-0.634C0.509,-0.601 0.511,-0.544 0.511,-0.463L0.511,-0.328ZM0.305,-0.587C0.305,-0.624 0.303,-0.648 0.299,-0.658C0.295,-0.668 0.287,-0.673 0.274,-0.673C0.263,-0.673 0.255,-0.669 0.249,-0.661C0.244,-0.653 0.241,-0.628 0.241,-0.587L0.241,-0.218C0.241,-0.172 0.243,-0.144 0.246,-0.133C0.25,-0.123 0.259,-0.117 0.272,-0.117C0.286,-0.117 0.295,-0.123 0.299,-0.136C0.303,-0.148 0.305,-0.178 0.305,-0.224L0.305,-0.587Z" style="fill:rgb(230,26,26);fill-rule:nonzero;"/>
            </g>
        </g>
        <g transform="matrix(0.534822,0.844965,-0.844965,0.534822,995.993,-861.459)">
            <g transform="matrix(40,0,0,40,1280.39,473.848)">
                <path d="M0.477,-0.551L0.286,-0.551L0.286,-0.61C0.286,-0.637 0.283,-0.655 0.278,-0.662C0.273,-0.67 0.265,-0.673 0.254,-0.673C0.242,-0.673 0.232,-0.668 0.226,-0.658C0.219,-0.648 0.216,-0.633 0.216,-0.612C0.216,-0.586 0.22,-0.566 0.227,-0.553C0.234,-0.539 0.253,-0.523 0.285,-0.504C0.377,-0.45 0.434,-0.405 0.458,-0.371C0.482,-0.336 0.494,-0.28 0.494,-0.202C0.494,-0.146 0.487,-0.104 0.474,-0.078C0.461,-0.051 0.435,-0.029 0.397,-0.01C0.36,0.008 0.316,0.017 0.266,0.017C0.211,0.017 0.164,0.006 0.125,-0.015C0.086,-0.035 0.06,-0.062 0.048,-0.094C0.036,-0.126 0.03,-0.172 0.03,-0.231L0.03,-0.283L0.221,-0.283L0.221,-0.187C0.221,-0.157 0.224,-0.138 0.229,-0.13C0.235,-0.121 0.244,-0.117 0.258,-0.117C0.271,-0.117 0.282,-0.123 0.288,-0.133C0.295,-0.144 0.298,-0.16 0.298,-0.181C0.298,-0.228 0.292,-0.258 0.279,-0.272C0.266,-0.287 0.234,-0.311 0.183,-0.344C0.132,-0.378 0.098,-0.403 0.082,-0.418C0.065,-0.433 0.051,-0.454 0.04,-0.481C0.029,-0.508 0.024,-0.543 0.024,-0.585C0.024,-0.646 0.032,-0.69 0.047,-0.718C0.063,-0.746 0.088,-0.768 0.122,-0.783C0.157,-0.799 0.198,-0.807 0.247,-0.807C0.3,-0.807 0.346,-0.799 0.384,-0.781C0.421,-0.764 0.446,-0.742 0.458,-0.716C0.47,-0.69 0.477,-0.645 0.477,-0.583L0.477,-0.551Z" style="fill:rgb(230,26,26);fill-rule:nonzero;"/>
            </g>
        </g>
    </g>
    <g transform="matrix(1.17893,0,0,1.27384,-624.584,-144.03)">
        <g transform="matrix(1.05264,0,0,1,520.005,55.7221)">
            <g transform="matrix(93.5592,0,0,93.5592,191.412,555.867)">
                <path d="M0.521,-0.446L0.315,-0.446L0.315,-0.583C0.315,-0.624 0.313,-0.649 0.309,-0.658C0.304,-0.668 0.295,-0.673 0.28,-0.673C0.263,-0.673 0.252,-0.667 0.248,-0.655C0.243,-0.643 0.241,-0.617 0.241,-0.577L0.241,-0.21C0.241,-0.172 0.243,-0.146 0.248,-0.135C0.252,-0.123 0.262,-0.117 0.278,-0.117C0.294,-0.117 0.304,-0.123 0.308,-0.135C0.313,-0.146 0.315,-0.174 0.315,-0.217L0.315,-0.316L0.521,-0.316L0.521,-0.286C0.521,-0.204 0.515,-0.146 0.504,-0.112C0.492,-0.078 0.467,-0.048 0.427,-0.022C0.387,0.004 0.339,0.017 0.281,0.017C0.221,0.017 0.171,0.006 0.132,-0.016C0.093,-0.038 0.067,-0.068 0.054,-0.107C0.042,-0.145 0.035,-0.203 0.035,-0.281L0.035,-0.512C0.035,-0.569 0.037,-0.611 0.041,-0.64C0.045,-0.668 0.057,-0.696 0.076,-0.722C0.095,-0.749 0.122,-0.769 0.156,-0.784C0.191,-0.8 0.23,-0.807 0.275,-0.807C0.335,-0.807 0.385,-0.795 0.425,-0.772C0.464,-0.749 0.49,-0.719 0.502,-0.684C0.515,-0.649 0.521,-0.595 0.521,-0.521L0.521,-0.446Z" style="fill:rgb(230,26,26);fill-rule:nonzero;"/>
            </g>
            <g transform="matrix(93.5592,0,0,93.5592,243.217,555.867)">
                <path d="M0.511,-0.328C0.511,-0.248 0.509,-0.192 0.505,-0.159C0.501,-0.126 0.49,-0.096 0.47,-0.068C0.45,-0.041 0.424,-0.02 0.39,-0.005C0.357,0.009 0.318,0.017 0.273,0.017C0.231,0.017 0.193,0.01 0.159,-0.004C0.125,-0.018 0.098,-0.039 0.078,-0.066C0.057,-0.094 0.045,-0.124 0.041,-0.157C0.037,-0.189 0.035,-0.246 0.035,-0.328L0.035,-0.463C0.035,-0.542 0.037,-0.599 0.041,-0.632C0.045,-0.665 0.056,-0.695 0.076,-0.722C0.096,-0.75 0.122,-0.771 0.156,-0.785C0.189,-0.8 0.228,-0.807 0.273,-0.807C0.315,-0.807 0.353,-0.8 0.387,-0.786C0.421,-0.773 0.448,-0.752 0.468,-0.724C0.489,-0.696 0.501,-0.666 0.505,-0.634C0.509,-0.601 0.511,-0.544 0.511,-0.463L0.511,-0.328ZM0.305,-0.587C0.305,-0.624 0.303,-0.648 0.299,-0.658C0.295,-0.668 0.287,-0.673 0.274,-0.673C0.263,-0.673 0.255,-0.669 0.249,-0.661C0.244,-0.653 0.241,-0.628 0.241,-0.587L0.241,-0.218C0.241,-0.172 0.243,-0.144 0.246,-0.133C0.25,-0.123 0.259,-0.117 0.272,-0.117C0.286,-0.117 0.295,-0.123 0.299,-0.136C0.303,-0.148 0.305,-0.178 0.305,-0.224L0.305,-0.587Z" style="fill:rgb(230,26,26);fill-rule:nonzero;"/>
            </g>
            <g transform="matrix(93.5592,0,0,93.5592,294.336,555.867)">
                <path d="M0.5,-0.791L0.5,-0L0.32,-0L0.213,-0.359L0.213,-0L0.041,-0L0.041,-0.791L0.213,-0.791L0.328,-0.435L0.328,-0.791L0.5,-0.791Z" style="fill:rgb(230,26,26);fill-rule:nonzero;"/>
            </g>
            <g transform="matrix(93.5592,0,0,93.5592,344.999,555.867)">
                <path d="M0.041,-0.791L0.389,-0.791L0.389,-0.632L0.247,-0.632L0.247,-0.482L0.374,-0.482L0.374,-0.332L0.247,-0.332L0.247,-0L0.041,-0L0.041,-0.791Z" style="fill:rgb(230,26,26);fill-rule:nonzero;"/>
            </g>
            <g transform="matrix(93.5592,0,0,93.5592,382.231,555.867)">
                <rect x="0.041" y="-0.791" width="0.206" height="0.791" style="fill:rgb(230,26,26);fill-rule:nonzero;"/>
            </g>
            <g transform="matrix(93.5592,0,0,93.5592,409.184,555.867)">
                <path d="M0.041,-0.791L0.195,-0.791C0.294,-0.791 0.361,-0.786 0.396,-0.777C0.431,-0.768 0.458,-0.753 0.476,-0.732C0.494,-0.711 0.506,-0.688 0.51,-0.662C0.515,-0.637 0.517,-0.587 0.517,-0.512L0.517,-0.235C0.517,-0.164 0.514,-0.116 0.507,-0.093C0.5,-0.069 0.489,-0.05 0.472,-0.036C0.456,-0.023 0.435,-0.013 0.411,-0.008C0.386,-0.003 0.349,-0 0.3,-0L0.041,-0L0.041,-0.791ZM0.247,-0.655L0.247,-0.135C0.276,-0.135 0.294,-0.141 0.301,-0.153C0.308,-0.165 0.312,-0.197 0.312,-0.25L0.312,-0.557C0.312,-0.593 0.31,-0.616 0.308,-0.626C0.306,-0.636 0.301,-0.643 0.292,-0.648C0.284,-0.653 0.269,-0.655 0.247,-0.655Z" style="fill:rgb(230,26,26);fill-rule:nonzero;"/>
            </g>
            <g transform="matrix(93.5592,0,0,93.5592,460.897,555.867)">
                <path d="M0.041,-0.791L0.384,-0.791L0.384,-0.632L0.247,-0.632L0.247,-0.482L0.375,-0.482L0.375,-0.332L0.247,-0.332L0.247,-0.158L0.397,-0.158L0.397,-0L0.041,-0L0.041,-0.791Z" style="fill:rgb(230,26,26);fill-rule:nonzero;"/>
            </g>
            <g transform="matrix(93.5592,0,0,93.5592,499.774,555.867)">
                <path d="M0.5,-0.791L0.5,-0L0.32,-0L0.213,-0.359L0.213,-0L0.041,-0L0.041,-0.791L0.213,-0.791L0.328,-0.435L0.328,-0.791L0.5,-0.791Z" style="fill:rgb(230,26,26);fill-rule:nonzero;"/>
            </g>
            <g transform="matrix(93.5592,0,0,93.5592,550.436,555.867)">
                <path d="M0.455,-0.791L0.455,-0.632L0.333,-0.632L0.333,-0L0.127,-0L0.127,-0.632L0.006,-0.632L0.006,-0.791L0.455,-0.791Z" style="fill:rgb(230,26,26);fill-rule:nonzero;"/>
            </g>
            <g transform="matrix(93.5592,0,0,93.5592,593.561,555.867)">
                <rect x="0.041" y="-0.791" width="0.206" height="0.791" style="fill:rgb(230,26,26);fill-rule:nonzero;"/>
            </g>
            <g transform="matrix(93.5592,0,0,93.5592,620.514,555.867)">
                <path d="M0.041,-0.791L0.384,-0.791L0.384,-0.632L0.247,-0.632L0.247,-0.482L0.375,-0.482L0.375,-0.332L0.247,-0.332L0.247,-0.158L0.397,-0.158L0.397,-0L0.041,-0L0.041,-0.791Z" style="fill:rgb(230,26,26);fill-rule:nonzero;"/>
            </g>
            <g transform="matrix(93.5592,0,0,93.5592,659.391,555.867)">
                <path d="M0.247,-0.791L0.247,-0.158L0.372,-0.158L0.372,-0L0.041,-0L0.041,-0.791L0.247,-0.791Z" style="fill:rgb(230,26,26);fill-rule:nonzero;"/>
            </g>
        </g>
        <g transform="matrix(1.05264,0,0,1,561.12,-47.793)">
            <g transform="matrix(93.5592,0,0,93.5592,191.412,555.867)">
                <path d="M0.455,-0.791L0.455,-0.632L0.333,-0.632L0.333,-0L0.127,-0L0.127,-0.632L0.006,-0.632L0.006,-0.791L0.455,-0.791Z" style="fill:rgb(230,26,26);fill-rule:nonzero;"/>
            </g>
            <g transform="matrix(93.5592,0,0,93.5592,234.537,555.867)">
                <path d="M0.511,-0.328C0.511,-0.248 0.509,-0.192 0.505,-0.159C0.501,-0.126 0.49,-0.096 0.47,-0.068C0.45,-0.041 0.424,-0.02 0.39,-0.005C0.357,0.009 0.318,0.017 0.273,0.017C0.231,0.017 0.193,0.01 0.159,-0.004C0.125,-0.018 0.098,-0.039 0.078,-0.066C0.057,-0.094 0.045,-0.124 0.041,-0.157C0.037,-0.189 0.035,-0.246 0.035,-0.328L0.035,-0.463C0.035,-0.542 0.037,-0.599 0.041,-0.632C0.045,-0.665 0.056,-0.695 0.076,-0.722C0.096,-0.75 0.122,-0.771 0.156,-0.785C0.189,-0.8 0.228,-0.807 0.273,-0.807C0.315,-0.807 0.353,-0.8 0.387,-0.786C0.421,-0.773 0.448,-0.752 0.468,-0.724C0.489,-0.696 0.501,-0.666 0.505,-0.634C0.509,-0.601 0.511,-0.544 0.511,-0.463L0.511,-0.328ZM0.305,-0.587C0.305,-0.624 0.303,-0.648 0.299,-0.658C0.295,-0.668 0.287,-0.673 0.274,-0.673C0.263,-0.673 0.255,-0.669 0.249,-0.661C0.244,-0.653 0.241,-0.628 0.241,-0.587L0.241,-0.218C0.241,-0.172 0.243,-0.144 0.246,-0.133C0.25,-0.123 0.259,-0.117 0.272,-0.117C0.286,-0.117 0.295,-0.123 0.299,-0.136C0.303,-0.148 0.305,-0.178 0.305,-0.224L0.305,-0.587Z" style="fill:rgb(230,26,26);fill-rule:nonzero;"/>
            </g>
            <g transform="matrix(93.5592,0,0,93.5592,285.657,555.867)">
                <path d="M0.041,-0.791L0.248,-0.791C0.304,-0.791 0.347,-0.786 0.377,-0.777C0.407,-0.769 0.43,-0.756 0.445,-0.739C0.46,-0.723 0.47,-0.703 0.476,-0.679C0.481,-0.655 0.484,-0.619 0.484,-0.569L0.484,-0.5C0.484,-0.45 0.479,-0.413 0.468,-0.39C0.458,-0.367 0.439,-0.349 0.411,-0.337C0.383,-0.325 0.347,-0.318 0.302,-0.318L0.247,-0.318L0.247,-0L0.041,-0L0.041,-0.791ZM0.247,-0.655L0.247,-0.454C0.252,-0.454 0.257,-0.454 0.262,-0.454C0.281,-0.454 0.294,-0.458 0.301,-0.468C0.308,-0.477 0.312,-0.496 0.312,-0.525L0.312,-0.59C0.312,-0.617 0.308,-0.635 0.299,-0.643C0.291,-0.651 0.273,-0.655 0.247,-0.655Z" style="fill:rgb(230,26,26);fill-rule:nonzero;"/>
            </g>
            <g transform="matrix(93.5592,0,0,93.5592,349.111,555.867)">
                <path d="M0.477,-0.551L0.286,-0.551L0.286,-0.61C0.286,-0.637 0.283,-0.655 0.278,-0.662C0.273,-0.67 0.265,-0.673 0.254,-0.673C0.242,-0.673 0.232,-0.668 0.226,-0.658C0.219,-0.648 0.216,-0.633 0.216,-0.612C0.216,-0.586 0.22,-0.566 0.227,-0.553C0.234,-0.539 0.253,-0.523 0.285,-0.504C0.377,-0.45 0.434,-0.405 0.458,-0.371C0.482,-0.336 0.494,-0.28 0.494,-0.202C0.494,-0.146 0.487,-0.104 0.474,-0.078C0.461,-0.051 0.435,-0.029 0.397,-0.01C0.36,0.008 0.316,0.017 0.266,0.017C0.211,0.017 0.164,0.006 0.125,-0.015C0.086,-0.035 0.06,-0.062 0.048,-0.094C0.036,-0.126 0.03,-0.172 0.03,-0.231L0.03,-0.283L0.221,-0.283L0.221,-0.187C0.221,-0.157 0.224,-0.138 0.229,-0.13C0.235,-0.121 0.244,-0.117 0.258,-0.117C0.271,-0.117 0.282,-0.123 0.288,-0.133C0.295,-0.144 0.298,-0.16 0.298,-0.181C0.298,-0.228 0.292,-0.258 0.279,-0.272C0.266,-0.287 0.234,-0.311 0.183,-0.344C0.132,-0.378 0.098,-0.403 0.082,-0.418C0.065,-0.433 0.051,-0.454 0.04,-0.481C0.029,-0.508 0.024,-0.543 0.024,-0.585C0.024,-0.646 0.032,-0.69 0.047,-0.718C0.063,-0.746 0.088,-0.768 0.122,-0.783C0.157,-0.799 0.198,-0.807 0.247,-0.807C0.3,-0.807 0.346,-0.799 0.384,-0.781C0.421,-0.764 0.446,-0.742 0.458,-0.716C0.47,-0.69 0.477,-0.645 0.477,-0.583L0.477,-0.551Z" style="fill:rgb(230,26,26);fill-rule:nonzero;"/>
            </g>
            <g transform="matrix(93.5592,0,0,93.5592,397.489,555.867)">
                <path d="M0.041,-0.791L0.384,-0.791L0.384,-0.632L0.247,-0.632L0.247,-0.482L0.375,-0.482L0.375,-0.332L0.247,-0.332L0.247,-0.158L0.397,-0.158L0.397,-0L0.041,-0L0.041,-0.791Z" style="fill:rgb(230,26,26);fill-rule:nonzero;"/>
            </g>
            <g transform="matrix(93.5592,0,0,93.5592,436.365,555.867)">
                <path d="M0.521,-0.446L0.315,-0.446L0.315,-0.583C0.315,-0.624 0.313,-0.649 0.309,-0.658C0.304,-0.668 0.295,-0.673 0.28,-0.673C0.263,-0.673 0.252,-0.667 0.248,-0.655C0.243,-0.643 0.241,-0.617 0.241,-0.577L0.241,-0.21C0.241,-0.172 0.243,-0.146 0.248,-0.135C0.252,-0.123 0.262,-0.117 0.278,-0.117C0.294,-0.117 0.304,-0.123 0.308,-0.135C0.313,-0.146 0.315,-0.174 0.315,-0.217L0.315,-0.316L0.521,-0.316L0.521,-0.286C0.521,-0.204 0.515,-0.146 0.504,-0.112C0.492,-0.078 0.467,-0.048 0.427,-0.022C0.387,0.004 0.339,0.017 0.281,0.017C0.221,0.017 0.171,0.006 0.132,-0.016C0.093,-0.038 0.067,-0.068 0.054,-0.107C0.042,-0.145 0.035,-0.203 0.035,-0.281L0.035,-0.512C0.035,-0.569 0.037,-0.611 0.041,-0.64C0.045,-0.668 0.057,-0.696 0.076,-0.722C0.095,-0.749 0.122,-0.769 0.156,-0.784C0.191,-0.8 0.23,-0.807 0.275,-0.807C0.335,-0.807 0.385,-0.795 0.425,-0.772C0.464,-0.749 0.49,-0.719 0.502,-0.684C0.515,-0.649 0.521,-0.595 0.521,-0.521L0.521,-0.446Z" style="fill:rgb(230,26,26);fill-rule:nonzero;"/>
            </g>
            <g transform="matrix(93.5592,0,0,93.5592,488.17,555.867)">
                <path d="M0.041,-0.791L0.187,-0.791C0.284,-0.791 0.349,-0.787 0.384,-0.779C0.418,-0.772 0.446,-0.753 0.468,-0.722C0.489,-0.691 0.5,-0.642 0.5,-0.575C0.5,-0.513 0.492,-0.472 0.477,-0.451C0.462,-0.43 0.432,-0.417 0.387,-0.413C0.427,-0.403 0.455,-0.389 0.469,-0.372C0.483,-0.355 0.491,-0.34 0.495,-0.325C0.498,-0.311 0.5,-0.272 0.5,-0.208L0.5,-0L0.309,-0L0.309,-0.263C0.309,-0.305 0.306,-0.331 0.299,-0.341C0.292,-0.351 0.275,-0.356 0.247,-0.356L0.247,-0L0.041,-0L0.041,-0.791ZM0.247,-0.655L0.247,-0.479C0.27,-0.479 0.286,-0.483 0.295,-0.489C0.304,-0.495 0.309,-0.516 0.309,-0.551L0.309,-0.594C0.309,-0.619 0.305,-0.636 0.296,-0.644C0.287,-0.651 0.27,-0.655 0.247,-0.655Z" style="fill:rgb(230,26,26);fill-rule:nonzero;"/>
            </g>
            <g transform="matrix(93.5592,0,0,93.5592,538.559,555.867)">
                <path d="M0.041,-0.791L0.384,-0.791L0.384,-0.632L0.247,-0.632L0.247,-0.482L0.375,-0.482L0.375,-0.332L0.247,-0.332L0.247,-0.158L0.397,-0.158L0.397,-0L0.041,-0L0.041,-0.791Z" style="fill:rgb(230,26,26);fill-rule:nonzero;"/>
            </g>
            <g transform="matrix(93.5592,0,0,93.5592,576.202,555.867)">
                <path d="M0.455,-0.791L0.455,-0.632L0.333,-0.632L0.333,-0L0.127,-0L0.127,-0.632L0.006,-0.632L0.006,-0.791L0.455,-0.791Z" style="fill:rgb(230,26,26);fill-rule:nonzero;"/>
            </g>
        </g>
    </g>
    <g transform="matrix(1.07183,0,0,1.07183,-495.341,-117.581)">
        <path d="M965.954,217.632L990.306,241.983L1012.01,263.687L1038.59,248.34L1068.41,231.121L1085.63,260.946L1100.98,287.527L1130.63,279.583L1163.89,270.67L1172.81,303.934L1180.75,333.582L1211.44,333.582L1245.88,333.582L1245.88,368.02L1245.88,398.714L1275.53,406.659L1308.8,415.572L1299.88,448.836L1291.94,478.484L1318.52,493.831L1348.34,511.05L1331.12,540.874L1315.78,567.456L1337.48,589.16L1361.83,613.511L1337.48,637.862L1315.78,659.566L1331.12,686.148L1348.34,715.972L1318.52,733.191L1291.94,748.538L1299.88,778.186L1308.8,811.451L1275.53,820.364L1245.88,828.308L1245.88,859.002L1245.88,893.44L1211.44,893.44L1180.75,893.44L1172.81,923.088L1163.89,956.352L1130.63,947.439L1100.98,939.495L1085.63,966.077L1068.41,995.901L1038.59,978.682L1012.01,963.335L990.306,985.039L965.954,1009.39L941.603,985.039L919.899,963.335L893.317,978.682L863.493,995.901L846.275,966.077L830.928,939.495L801.279,947.439L768.015,956.352L759.102,923.088L751.158,893.44L720.464,893.44L686.026,893.44L686.026,859.002L686.026,828.308L656.378,820.364L623.113,811.451L632.026,778.186L639.971,748.538L613.389,733.191L583.565,715.972L600.784,686.148L616.131,659.566L594.427,637.862L570.076,613.511L594.427,589.16L616.131,567.456L600.784,540.874L583.565,511.05L613.389,493.831L639.971,478.484L632.026,448.836L623.113,415.572L656.378,406.659L686.026,398.714L686.026,368.02L686.026,333.582L720.464,333.582L751.158,333.582L759.102,303.934L768.015,270.67L801.279,279.583L830.928,287.527L846.275,260.946L863.493,231.121L893.317,248.34L919.899,263.687L941.603,241.983L965.954,217.632Z" style="fill:none;stroke:rgb(230,26,26);stroke-width:9.33px;"/>
    </g>
    <g transform="matrix(1,0,0,1,-420,0)">
        <path d="M763.224,381.763L1162.21,381.763" style="fill:none;stroke:rgb(230,26,26);stroke-width:10px;"/>
    </g>
    <g transform="matrix(1,0,0,1,-418.992,280.474)">
        <path d="M763.224,381.763L1162.21,381.763" style="fill:none;stroke:rgb(230,26,26);stroke-width:10px;"/>
    </g>
</svg>
