<?xml version="1.0" encoding="UTF-8" standalone="no"?>
<!DOCTYPE svg PUBLIC "-//W3C//DTD SVG 1.1//EN" "http://www.w3.org/Graphics/SVG/1.1/DTD/svg11.dtd">
<svg width="100%" height="100%" viewBox="0 0 1080 1080" version="1.1" xmlns="http://www.w3.org/2000/svg" xmlns:xlink="http://www.w3.org/1999/xlink" xml:space="preserve" xmlns:serif="http://www.serif.com/" style="fill-rule:evenodd;clip-rule:evenodd;stroke-linecap:round;stroke-linejoin:round;stroke-miterlimit:1.5;">
    <g transform="matrix(1,0,0,1,-461.878,-54.6573)">
        <circle cx="1001.88" cy="594.657" r="342.786" style="fill:none;stroke:rgb(230,26,26);stroke-width:10px;"/>
    </g>
    <g transform="matrix(1.05357,0,0,1.05343,-515.546,-86.4277)">
        <circle cx="1001.88" cy="594.657" r="342.786" style="fill:none;stroke:rgb(230,26,26);stroke-width:5.22px;"/>
    </g>
    <g transform="matrix(0.977257,0.212057,-0.212057,0.977257,-314.864,-282.988)">
        <g transform="matrix(0.350093,-0.936715,0.936715,0.350093,-29.7885,1036.39)">
            <text x="731.986px" y="539.664px" style="font-family:'Impact', sans-serif;font-stretch:condensed;font-size:40px;fill:rgb(230,26,26);">S</text>
        </g>
        <g transform="matrix(0.41481,-0.909908,0.909908,0.41481,-40.8426,977.144)">
            <text x="739.256px" y="520.325px" style="font-family:'Impact', sans-serif;font-stretch:condensed;font-size:40px;fill:rgb(230,26,26);">T</text>
        </g>
        <g transform="matrix(0.478812,-0.877917,0.877917,0.478812,-52.7244,918.1)">
            <text x="746.887px" y="503.456px" style="font-family:'Impact', sans-serif;font-stretch:condensed;font-size:40px;fill:rgb(230,26,26);">R</text>
        </g>
        <g transform="matrix(0.541911,-0.840436,0.840436,0.541911,-60.4054,858.363)">
            <text x="757.198px" y="484.593px" style="font-family:'Impact', sans-serif;font-stretch:condensed;font-size:40px;fill:rgb(230,26,26);">A</text>
        </g>
        <g transform="matrix(0.591415,-0.806368,0.806368,0.591415,-65.0537,810.244)">
            <text x="767.006px" y="469.316px" style="font-family:'Impact', sans-serif;font-stretch:condensed;font-size:40px;fill:rgb(230,26,26);">T</text>
        </g>
        <g transform="matrix(0.639849,-0.7685,0.7685,0.639849,-70.4064,761.165)">
            <text x="776.896px" y="455.7px" style="font-family:'Impact', sans-serif;font-stretch:condensed;font-size:40px;fill:rgb(230,26,26);">A</text>
        </g>
        <g transform="matrix(0.680911,-0.732366,0.732366,0.680911,-70.2797,719.014)">
            <text x="789.993px" y="440.159px" style="font-family:'Impact', sans-serif;font-stretch:condensed;font-size:40px;fill:rgb(230,26,26);">I</text>
        </g>
        <g transform="matrix(0.72206,-0.69183,0.69183,0.72206,-76.8841,671.854)">
            <text x="797.726px" y="431.614px" style="font-family:'Impact', sans-serif;font-stretch:condensed;font-size:40px;fill:rgb(230,26,26);">D</text>
        </g>
        <g transform="matrix(0.77137,-0.636387,0.636387,0.77137,-78.9079,613.004)">
            <text x="813.688px" y="416.321px" style="font-family:'Impact', sans-serif;font-stretch:condensed;font-size:40px;fill:rgb(230,26,26);">G</text>
        </g>
        <g transform="matrix(0.806266,-0.591553,0.591553,0.806266,-77.0867,569.421)">
            <text x="830.801px" y="402.4px" style="font-family:'Impact', sans-serif;font-stretch:condensed;font-size:40px;fill:rgb(230,26,26);">I</text>
        </g>
        <g transform="matrix(0.838545,-0.544832,0.544832,0.838545,-79.8259,521.519)">
            <text x="840.024px" y="395.446px" style="font-family:'Impact', sans-serif;font-stretch:condensed;font-size:40px;fill:rgb(230,26,26);">C</text>
        </g>
        <g transform="matrix(0.887584,-0.460647,0.460647,0.887584,-77.7761,440.998)">
            <text x="864.647px" y="379.85px" style="font-family:'Impact', sans-serif;font-stretch:condensed;font-size:40px;fill:rgb(230,26,26);">C</text>
        </g>
        <g transform="matrix(0.918937,-0.394404,0.394404,0.918937,-74.0935,378.758)">
            <text x="884.36px" y="369.627px" style="font-family:'Impact', sans-serif;font-stretch:condensed;font-size:40px;fill:rgb(230,26,26);">O</text>
        </g>
        <g transform="matrix(0.948727,-0.316096,0.316096,0.948727,-67.7055,304.369)">
            <text x="904.363px" y="360.886px" style="font-family:'Impact', sans-serif;font-stretch:condensed;font-size:40px;fill:rgb(230,26,26);">M</text>
        </g>
        <g transform="matrix(0.97014,-0.242545,0.242545,0.97014,-57.5609,236.481)">
            <text x="931.662px" y="352.018px" style="font-family:'Impact', sans-serif;font-stretch:condensed;font-size:40px;fill:rgb(230,26,26);">E</text>
        </g>
        <g transform="matrix(0.982659,-0.185422,0.185422,0.982659,-48.0774,181.775)">
            <text x="947.792px" y="347.925px" style="font-family:'Impact', sans-serif;font-stretch:condensed;font-size:40px;fill:rgb(230,26,26);">X</text>
        </g>
        <g transform="matrix(0.995383,-0.0959792,0.0959792,0.995383,-28.4519,95.0437)">
            <text x="973.741px" y="343.276px" style="font-family:'Impact', sans-serif;font-stretch:condensed;font-size:40px;fill:rgb(230,26,26);">D</text>
        </g>
        <g transform="matrix(0.999667,-0.0258222,0.0258222,0.999667,-8.47747,25.8261)">
            <text x="995.744px" y="341.16px" style="font-family:'Impact', sans-serif;font-stretch:condensed;font-size:40px;fill:rgb(230,26,26);">R</text>
        </g>
        <g transform="matrix(0.999636,0.0269693,-0.0269693,0.999636,9.55941,-27.3119)">
            <text x="1017.3px" y="340.735px" style="font-family:'Impact', sans-serif;font-stretch:condensed;font-size:40px;fill:rgb(230,26,26);">I</text>
        </g>
        <g transform="matrix(0.996885,0.0788694,-0.0788694,0.996885,30.0934,-80.0797)">
            <text x="1028.81px" y="340.925px" style="font-family:'Impact', sans-serif;font-stretch:condensed;font-size:40px;fill:rgb(230,26,26);">S</text>
        </g>
        <g transform="matrix(0.989848,0.142132,-0.142132,0.989848,59.3471,-145.678)">
            <text x="1049.42px" y="342.591px" style="font-family:'Impact', sans-serif;font-stretch:condensed;font-size:40px;fill:rgb(230,26,26);">T</text>
        </g>
        <g transform="matrix(0.978345,0.206981,-0.206981,0.978345,94.5641,-213.522)">
            <text x="1067.71px" y="345.164px" style="font-family:'Impact', sans-serif;font-stretch:condensed;font-size:40px;fill:rgb(230,26,26);">R</text>
        </g>
        <g transform="matrix(0.96109,0.276237,-0.276237,0.96109,138.939,-287.154)">
            <text x="1088.77px" y="349.609px" style="font-family:'Impact', sans-serif;font-stretch:condensed;font-size:40px;fill:rgb(230,26,26);">U</text>
        </g>
        <g transform="matrix(0.939014,0.343878,-0.343878,0.939014,189.99,-359.947)">
            <text x="1109.81px" y="355.673px" style="font-family:'Impact', sans-serif;font-stretch:condensed;font-size:40px;fill:rgb(230,26,26);">P</text>
        </g>
        <g transform="matrix(0.915671,0.401929,-0.401929,0.915671,240.918,-423.07)">
            <text x="1128.68px" y="362.596px" style="font-family:'Impact', sans-serif;font-stretch:condensed;font-size:40px;fill:rgb(230,26,26);">T</text>
        </g>
        <g transform="matrix(0.894496,0.447076,-0.447076,0.894496,286.312,-473.089)">
            <text x="1145.52px" y="370.083px" style="font-family:'Impact', sans-serif;font-stretch:condensed;font-size:40px;fill:rgb(230,26,26);">I</text>
        </g>
        <g transform="matrix(0.871982,0.489538,-0.489538,0.871982,331.641,-517.816)">
            <text x="1155.88px" y="375.185px" style="font-family:'Impact', sans-serif;font-stretch:condensed;font-size:40px;fill:rgb(230,26,26);">F</text>
        </g>
        <g transform="matrix(0.820998,0.570931,-0.570931,0.820998,431.12,-602.195)">
            <text x="1175.92px" y="386.436px" style="font-family:'Impact', sans-serif;font-stretch:condensed;font-size:40px;fill:rgb(230,26,26);">M</text>
        </g>
        <g transform="matrix(0.768889,0.639382,-0.639382,0.768889,534.806,-673.743)">
            <text x="1199.38px" y="402.914px" style="font-family:'Impact', sans-serif;font-stretch:condensed;font-size:40px;fill:rgb(230,26,26);">B</text>
        </g>
        <g transform="matrix(0.721288,0.692635,-0.692635,0.721288,627.906,-726.259)">
            <text x="1216.38px" y="417.084px" style="font-family:'Impact', sans-serif;font-stretch:condensed;font-size:40px;fill:rgb(230,26,26);">A</text>
        </g>
    </g>
    <g transform="matrix(-0.995963,-0.089765,0.089765,-0.995963,1503.12,1259.25)">
        <g transform="matrix(0.351761,-0.93609,0.93609,0.351761,-36.5149,1039.68)">
            <text x="732.421px" y="546.207px" style="font-family:'Impact', sans-serif;font-stretch:condensed;font-size:40px;fill:rgb(230,26,26);">B</text>
        </g>
        <g transform="matrix(0.413207,-0.910637,0.910637,0.413207,-44.1888,982.513)">
            <text x="740.281px" y="525.545px" style="font-family:'Impact', sans-serif;font-stretch:condensed;font-size:40px;fill:rgb(230,26,26);">L</text>
        </g>
        <g transform="matrix(0.468587,-0.883417,0.883417,0.468587,-55.3014,931.323)">
            <text x="746.462px" y="511.628px" style="font-family:'Impact', sans-serif;font-stretch:condensed;font-size:40px;fill:rgb(230,26,26);">U</text>
        </g>
        <g transform="matrix(0.527035,-0.849844,0.849844,0.527035,-60.4787,876.002)">
            <text x="756.779px" y="492.336px" style="font-family:'Impact', sans-serif;font-stretch:condensed;font-size:40px;fill:rgb(230,26,26);">E</text>
        </g>
        <g transform="matrix(0.59917,-0.800622,0.800622,0.59917,-69.732,805.321)">
            <text x="769.412px" y="472.302px" style="font-family:'Impact', sans-serif;font-stretch:condensed;font-size:40px;fill:rgb(230,26,26);">O</text>
        </g>
        <g transform="matrix(0.656568,-0.754267,0.754267,0.656568,-74.2977,746.411)">
            <text x="782.508px" y="454.794px" style="font-family:'Impact', sans-serif;font-stretch:condensed;font-size:40px;fill:rgb(230,26,26);">C</text>
        </g>
        <g transform="matrix(0.704585,-0.70962,0.70962,0.704585,-75.443,695.072)">
            <text x="797.098px" y="438.147px" style="font-family:'Impact', sans-serif;font-stretch:condensed;font-size:40px;fill:rgb(230,26,26);">E</text>
        </g>
        <g transform="matrix(0.745401,-0.666616,0.666616,0.745401,-78.2667,647.672)">
            <text x="808.766px" y="426.299px" style="font-family:'Impact', sans-serif;font-stretch:condensed;font-size:40px;fill:rgb(230,26,26);">A</text>
        </g>
        <g transform="matrix(0.789426,-0.613845,0.613845,0.789426,-79.8504,592.667)">
            <text x="823.919px" y="412.72px" style="font-family:'Impact', sans-serif;font-stretch:condensed;font-size:40px;fill:rgb(230,26,26);">N</text>
        </g>
        <g transform="matrix(0.842355,-0.538922,0.538922,0.842355,-79.5957,518.674)">
            <text x="846.77px" y="395.39px" style="font-family:'Impact', sans-serif;font-stretch:condensed;font-size:40px;fill:rgb(230,26,26);">S</text>
        </g>
        <g transform="matrix(0.885695,-0.464268,0.464268,0.885695,-79.5011,445.074)">
            <text x="864.118px" y="383.99px" style="font-family:'Impact', sans-serif;font-stretch:condensed;font-size:40px;fill:rgb(230,26,26);">W</text>
        </g>
        <g transform="matrix(0.923007,-0.384782,0.384782,0.923007,-73.2479,372.064)">
            <text x="893.1px" y="369.066px" style="font-family:'Impact', sans-serif;font-stretch:condensed;font-size:40px;fill:rgb(230,26,26);">O</text>
        </g>
        <g transform="matrix(0.945964,-0.324272,0.324272,0.945964,-67.6222,315.638)">
            <text x="913.263px" y="360.72px" style="font-family:'Impact', sans-serif;font-stretch:condensed;font-size:40px;fill:rgb(230,26,26);">T</text>
        </g>
        <g transform="matrix(0.970642,-0.240529,0.240529,0.970642,-57.3024,235.849)">
            <text x="937.498px" y="352.662px" style="font-family:'Impact', sans-serif;font-stretch:condensed;font-size:40px;fill:rgb(230,26,26);">Q</text>
        </g>
        <g transform="matrix(0.985003,-0.172539,0.172539,0.985003,-45.5654,170.617)">
            <text x="958.665px" y="347.416px" style="font-family:'Impact', sans-serif;font-stretch:condensed;font-size:40px;fill:rgb(230,26,26);">U</text>
        </g>
        <g transform="matrix(0.994322,-0.106415,0.106415,0.994322,-31.0056,106.261)">
            <text x="980.215px" y="343.669px" style="font-family:'Impact', sans-serif;font-stretch:condensed;font-size:40px;fill:rgb(230,26,26);">A</text>
        </g>
        <g transform="matrix(0.999209,-0.0397736,0.0397736,0.999209,-12.7901,40.0603)">
            <text x="1000.41px" y="341.475px" style="font-family:'Impact', sans-serif;font-stretch:condensed;font-size:40px;fill:rgb(230,26,26);">D</text>
        </g>
        <g transform="matrix(0.99961,0.0279252,-0.0279252,0.99961,9.9101,-28.4226)">
            <text x="1022.57px" y="340.6px" style="font-family:'Impact', sans-serif;font-stretch:condensed;font-size:40px;fill:rgb(230,26,26);">R</text>
        </g>
        <g transform="matrix(0.995654,0.0931304,-0.0931304,0.995654,36.3157,-95.7559)">
            <text x="1044.12px" y="341.219px" style="font-family:'Impact', sans-serif;font-stretch:condensed;font-size:40px;fill:rgb(230,26,26);">A</text>
        </g>
        <g transform="matrix(0.987301,0.158863,-0.158863,0.987301,68.0205,-164.728)">
            <text x="1064.34px" y="343.088px" style="font-family:'Impact', sans-serif;font-stretch:condensed;font-size:40px;fill:rgb(230,26,26);">N</text>
        </g>
        <g transform="matrix(0.975183,0.221403,-0.221403,0.975183,103.676,-231.771)">
            <text x="1085.68px" y="346.572px" style="font-family:'Impact', sans-serif;font-stretch:condensed;font-size:40px;fill:rgb(230,26,26);">T</text>
        </g>
        <g transform="matrix(0.948846,0.31574,-0.31574,0.948846,168.047,-332.616)">
            <text x="1110.53px" y="352.31px" style="font-family:'Impact', sans-serif;font-stretch:condensed;font-size:40px;fill:rgb(230,26,26);">M</text>
        </g>
        <g transform="matrix(0.920984,0.389599,-0.389599,0.920984,230.752,-414.689)">
            <text x="1137.72px" y="361.536px" style="font-family:'Impact', sans-serif;font-stretch:condensed;font-size:40px;fill:rgb(230,26,26);">A</text>
        </g>
        <g transform="matrix(0.89804,0.439913,-0.439913,0.89804,279.832,-470.257)">
            <text x="1154.4px" y="368.55px" style="font-family:'Impact', sans-serif;font-stretch:condensed;font-size:40px;fill:rgb(230,26,26);">T</text>
        </g>
        <g transform="matrix(0.867684,0.497115,-0.497115,0.867684,342.161,-532.281)">
            <text x="1170.98px" y="376.616px" style="font-family:'Impact', sans-serif;font-stretch:condensed;font-size:40px;fill:rgb(230,26,26);">R</text>
        </g>
        <g transform="matrix(0.839954,0.542658,-0.542658,0.839954,400.631,-583.534)">
            <text x="1189.59px" y="387.43px" style="font-family:'Impact', sans-serif;font-stretch:condensed;font-size:40px;fill:rgb(230,26,26);">I</text>
        </g>
        <g transform="matrix(0.811163,0.58482,-0.58482,0.811163,456.689,-627.088)">
            <text x="1199.38px" y="393.629px" style="font-family:'Impact', sans-serif;font-stretch:condensed;font-size:40px;fill:rgb(230,26,26);">X</text>
        </g>
        <g transform="matrix(0.748362,0.663291,-0.663291,0.748362,578.54,-706.72)">
            <text x="1220.69px" y="409.124px" style="font-family:'Impact', sans-serif;font-stretch:condensed;font-size:40px;fill:rgb(230,26,26);">M</text>
        </g>
        <g transform="matrix(0.690694,0.723147,-0.723147,0.690694,693.841,-765.718)">
            <text x="1242.03px" y="428.229px" style="font-family:'Impact', sans-serif;font-stretch:condensed;font-size:40px;fill:rgb(230,26,26);">O</text>
        </g>
        <g transform="matrix(0.642157,0.766573,-0.766573,0.642157,790.311,-804.741)">
            <text x="1257.12px" y="444.133px" style="font-family:'Impact', sans-serif;font-stretch:condensed;font-size:40px;fill:rgb(230,26,26);">F</text>
        </g>
        <g transform="matrix(0.594159,0.804347,-0.804347,0.594159,881.371,-834.279)">
            <text x="1267.43px" y="456.269px" style="font-family:'Impact', sans-serif;font-stretch:condensed;font-size:40px;fill:rgb(230,26,26);">O</text>
        </g>
        <g transform="matrix(0.534822,0.844965,-0.844965,0.534822,995.993,-861.459)">
            <text x="1280.39px" y="473.848px" style="font-family:'Impact', sans-serif;font-stretch:condensed;font-size:40px;fill:rgb(230,26,26);">S</text>
        </g>
    </g>
    <g transform="matrix(1.17893,0,0,1.27384,-624.584,-144.03)">
        <g transform="matrix(1.05264,0,0,1,520.005,55.7221)">
            <text x="191.412px" y="555.867px" style="font-family:'Impact', sans-serif;font-stretch:condensed;font-size:93.559px;fill:rgb(230,26,26);">CONFIDENTIEL</text>
        </g>
        <g transform="matrix(1.05264,0,0,1,561.12,-47.793)">
            <text x="191.412px" y="555.867px" style="font-family:'Impact', sans-serif;font-stretch:condensed;font-size:93.559px;fill:rgb(230,26,26);">TOP SECRE<tspan x="576.202px " y="555.867px ">T</tspan></text>
        </g>
    </g>
    <g transform="matrix(1.07183,0,0,1.07183,-495.341,-117.581)">
        <path d="M965.954,217.632L990.306,241.983L1012.01,263.687L1038.59,248.34L1068.41,231.121L1085.63,260.946L1100.98,287.527L1130.63,279.583L1163.89,270.67L1172.81,303.934L1180.75,333.582L1211.44,333.582L1245.88,333.582L1245.88,368.02L1245.88,398.714L1275.53,406.659L1308.8,415.572L1299.88,448.836L1291.94,478.484L1318.52,493.831L1348.34,511.05L1331.12,540.874L1315.78,567.456L1337.48,589.16L1361.83,613.511L1337.48,637.862L1315.78,659.566L1331.12,686.148L1348.34,715.972L1318.52,733.191L1291.94,748.538L1299.88,778.186L1308.8,811.451L1275.53,820.364L1245.88,828.308L1245.88,859.002L1245.88,893.44L1211.44,893.44L1180.75,893.44L1172.81,923.088L1163.89,956.352L1130.63,947.439L1100.98,939.495L1085.63,966.077L1068.41,995.901L1038.59,978.682L1012.01,963.335L990.306,985.039L965.954,1009.39L941.603,985.039L919.899,963.335L893.317,978.682L863.493,995.901L846.275,966.077L830.928,939.495L801.279,947.439L768.015,956.352L759.102,923.088L751.158,893.44L720.464,893.44L686.026,893.44L686.026,859.002L686.026,828.308L656.378,820.364L623.113,811.451L632.026,778.186L639.971,748.538L613.389,733.191L583.565,715.972L600.784,686.148L616.131,659.566L594.427,637.862L570.076,613.511L594.427,589.16L616.131,567.456L600.784,540.874L583.565,511.05L613.389,493.831L639.971,478.484L632.026,448.836L623.113,415.572L656.378,406.659L686.026,398.714L686.026,368.02L686.026,333.582L720.464,333.582L751.158,333.582L759.102,303.934L768.015,270.67L801.279,279.583L830.928,287.527L846.275,260.946L863.493,231.121L893.317,248.34L919.899,263.687L941.603,241.983L965.954,217.632Z" style="fill:none;stroke:rgb(230,26,26);stroke-width:9.33px;"/>
    </g>
    <g transform="matrix(1,0,0,1,-420,0)">
        <path d="M763.224,381.763L1162.21,381.763" style="fill:none;stroke:rgb(230,26,26);stroke-width:10px;"/>
    </g>
    <g transform="matrix(1,0,0,1,-418.992,280.474)">
        <path d="M763.224,381.763L1162.21,381.763" style="fill:none;stroke:rgb(230,26,26);stroke-width:10px;"/>
    </g>
</svg>
